<?xml version="1.0" encoding="UTF-8"?>
<svg version="1.1" xmlns="http://www.w3.org/2000/svg" width="64" height="64">
<path d="M0 0 C4.61581142 2.18643699 6.72864085 4.49599804 9 9 C9.82885269 14.54808604 9.7240695 19.47140883 7.3125 24.5625 C4.21064779 27.8320199 1.61649202 29.75850523 -2.90234375 30.43359375 C-9.05071801 30.44150672 -13.31314296 30.4465054 -18 26 C-21.06762412 21.9803546 -22.33503707 18.09452423 -21.78515625 13.015625 C-20.79393002 7.99341213 -19.0208513 5.3343645 -15 2 C-10.32198701 -1.11867533 -5.47651278 -0.58676923 0 0 Z M-16 7 C-18.82605874 11.2390881 -18.66012246 15.02124503 -18 20 C-15.94892412 23.39488422 -14.29515379 24.80323081 -11 27 C-6.17357185 27.70351326 -2.2163455 27.73487541 2 25.1875 C5.98148307 20.83275289 6.43214912 18.14071498 6.32421875 12.4453125 C5.86768231 9.00203768 4.53159355 7.31459982 2 5 C-3.92137701 1.05241533 -11.14654762 1.69153646 -16 7 Z " fill="#000000" transform="translate(38,17)"/>
<path d="M0 0 C2.1875 1.375 2.1875 1.375 3 4.125 C3.49784483 12.75431034 3.49784483 12.75431034 2.1875 15.375 C-2.5204106 17.79621116 -6.51381195 17.88581957 -11.625 16.75 C-13.8125 15.375 -13.8125 15.375 -14.625 12.625 C-15.12284483 3.99568966 -15.12284483 3.99568966 -13.8125 1.375 C-9.1045894 -1.04621116 -5.11118805 -1.13581957 0 0 Z M-6.8125 1.375 C-7.1425 2.365 -7.4725 3.355 -7.8125 4.375 C-6.4925 4.045 -5.1725 3.715 -3.8125 3.375 C-4.1425 2.715 -4.4725 2.055 -4.8125 1.375 C-5.4725 1.375 -6.1325 1.375 -6.8125 1.375 Z M-11.8125 4.375 C-11.8125 7.015 -11.8125 9.655 -11.8125 12.375 C-10.8225 12.045 -9.8325 11.715 -8.8125 11.375 C-8.8125 9.065 -8.8125 6.755 -8.8125 4.375 C-9.8025 4.375 -10.7925 4.375 -11.8125 4.375 Z M-2.8125 4.375 C-2.8125 7.015 -2.8125 9.655 -2.8125 12.375 C-1.8225 12.375 -0.8325 12.375 0.1875 12.375 C0.1875 9.735 0.1875 7.095 0.1875 4.375 C-0.8025 4.375 -1.7925 4.375 -2.8125 4.375 Z M-6.8125 7.375 C-6.8125 8.035 -6.8125 8.695 -6.8125 9.375 C-6.1525 9.375 -5.4925 9.375 -4.8125 9.375 C-4.8125 8.715 -4.8125 8.055 -4.8125 7.375 C-5.4725 7.375 -6.1325 7.375 -6.8125 7.375 Z M-7.8125 12.375 C-7.4825 13.365 -7.1525 14.355 -6.8125 15.375 C-6.1525 15.375 -5.4925 15.375 -4.8125 15.375 C-4.4825 14.385 -4.1525 13.395 -3.8125 12.375 C-5.1325 12.375 -6.4525 12.375 -7.8125 12.375 Z " fill="#000000" transform="translate(15.8125,45.625)"/>
<path d="M0 0 C2.1875 1.375 2.1875 1.375 3 4.125 C3.49784483 12.75431034 3.49784483 12.75431034 2.1875 15.375 C-2.5204106 17.79621116 -6.51381195 17.88581957 -11.625 16.75 C-13.8125 15.375 -13.8125 15.375 -14.625 12.625 C-15.12284483 3.99568966 -15.12284483 3.99568966 -13.8125 1.375 C-9.1045894 -1.04621116 -5.11118805 -1.13581957 0 0 Z M-6.8125 1.375 C-7.1425 2.365 -7.4725 3.355 -7.8125 4.375 C-6.4925 4.045 -5.1725 3.715 -3.8125 3.375 C-4.1425 2.715 -4.4725 2.055 -4.8125 1.375 C-5.4725 1.375 -6.1325 1.375 -6.8125 1.375 Z M-11.8125 4.375 C-11.8125 7.015 -11.8125 9.655 -11.8125 12.375 C-10.8225 12.045 -9.8325 11.715 -8.8125 11.375 C-8.8125 9.065 -8.8125 6.755 -8.8125 4.375 C-9.8025 4.375 -10.7925 4.375 -11.8125 4.375 Z M-2.8125 4.375 C-2.8125 7.015 -2.8125 9.655 -2.8125 12.375 C-1.8225 12.375 -0.8325 12.375 0.1875 12.375 C0.1875 9.735 0.1875 7.095 0.1875 4.375 C-0.8025 4.375 -1.7925 4.375 -2.8125 4.375 Z M-6.8125 7.375 C-6.8125 8.035 -6.8125 8.695 -6.8125 9.375 C-6.1525 9.375 -5.4925 9.375 -4.8125 9.375 C-4.8125 8.715 -4.8125 8.055 -4.8125 7.375 C-5.4725 7.375 -6.1325 7.375 -6.8125 7.375 Z M-7.8125 12.375 C-7.4825 13.365 -7.1525 14.355 -6.8125 15.375 C-6.1525 15.375 -5.4925 15.375 -4.8125 15.375 C-4.4825 14.385 -4.1525 13.395 -3.8125 12.375 C-5.1325 12.375 -6.4525 12.375 -7.8125 12.375 Z " fill="#000000" transform="translate(59.8125,1.625)"/>
<path d="M0 0 C2.375 0.25 2.375 0.25 5 1 C6.3125 3.0625 6.3125 3.0625 7 5 C6.01 5.33 5.02 5.66 4 6 C3.67 16.23 3.34 26.46 3 37 C-8.88 37 -20.76 37 -33 37 C-33 36.34 -33 35.68 -33 35 C-22.11 35 -11.22 35 0 35 C0 25.43 0 15.86 0 6 C-0.99 5.67 -1.98 5.34 -3 5 C-2.01 3.35 -1.02 1.7 0 0 Z " fill="#000000" transform="translate(55,22)"/>
<path d="M0 0 C11.88 0 23.76 0 36 0 C36 0.66 36 1.32 36 2 C24.78 2 13.56 2 2 2 C2.33 11.57 2.66 21.14 3 31 C3.99 31.33 4.98 31.66 6 32 C4.515 34.475 4.515 34.475 3 37 C0.625 36.75 0.625 36.75 -2 36 C-3.3125 33.9375 -3.3125 33.9375 -4 32 C-3.01 31.67 -2.02 31.34 -1 31 C-0.67 20.77 -0.34 10.54 0 0 Z " fill="#000000" transform="translate(6,5)"/>
<path d="M0 0 C5.625 1.125 5.625 1.125 8.8125 3.5625 C9.71935547 4.24505859 9.71935547 4.24505859 10.64453125 4.94140625 C11.09183594 5.29074219 11.53914063 5.64007813 12 6 C11.6213092 8.40342428 11.39919886 9.6605238 9.51171875 11.265625 C8.90972656 11.59046875 8.30773437 11.9153125 7.6875 12.25 C7.09324219 12.58515625 6.49898437 12.9203125 5.88671875 13.265625 C4 14 4 14 0 14 C0 9.38 0 4.76 0 0 Z M2 4 C2 5.98 2 7.96 2 10 C3.98 9.34 5.96 8.68 8 8 C5.28996707 5.32668287 5.28996707 5.32668287 2 4 Z " fill="#000000" transform="translate(27,25)"/>
</svg>
