<?xml version="1.0" encoding="UTF-8"?>
<svg version="1.1" xmlns="http://www.w3.org/2000/svg" width="50" height="50">
<path d="M0 0 C3.5625 0.25 3.5625 0.25 6.5625 2.25 C6.92578125 4.4921875 6.92578125 4.4921875 6.875 7.125 C6.87113281 7.98867188 6.86726563 8.85234375 6.86328125 9.7421875 C6.5522786 12.3352226 5.87003633 14.00999753 4.5625 16.25 C10.30487154 18.33813511 13.9177008 18.75879964 19.5625 16.25 C19.07523438 15.41855469 19.07523438 15.41855469 18.578125 14.5703125 C17.41471891 11.91237706 17.29524805 10.01470153 17.3125 7.125 C17.30734375 6.25617187 17.3021875 5.38734375 17.296875 4.4921875 C17.5625 2.25 17.5625 2.25 19.5625 0.25 C23.89893601 -0.06537716 25.88903229 -0.19897847 29.5625 2.25 C29.92578125 4.4921875 29.92578125 4.4921875 29.875 7.125 C29.87113281 7.98867188 29.86726563 8.85234375 29.86328125 9.7421875 C29.5522786 12.3352226 28.87003633 14.00999753 27.5625 16.25 C28.51125 16.53875 29.46 16.8275 30.4375 17.125 C33.5625 18.25 33.5625 18.25 35.5625 20.25 C35.5625 21.57 35.5625 22.89 35.5625 24.25 C20.3825 24.25 5.2025 24.25 -10.4375 24.25 C-9.4375 19.25 -9.4375 19.25 -7.5 17.4375 C-5.4375 16.25 -5.4375 16.25 -3.4375 16.25 C-3.76234375 15.69570313 -4.0871875 15.14140625 -4.421875 14.5703125 C-5.58528109 11.91237706 -5.70475195 10.01470153 -5.6875 7.125 C-5.69265625 6.25617187 -5.6978125 5.38734375 -5.703125 4.4921875 C-5.23515692 0.54198634 -3.79952308 0.27632895 0 0 Z M-1.4375 3.25 C-2.72310035 4.31772706 -2.72310035 4.31772706 -2.625 6.8125 C-2.4034638 10.87399692 -1.51818279 14.33252489 -0.4375 18.25 C-1.8915625 18.683125 -1.8915625 18.683125 -3.375 19.125 C-6.54414203 19.89214682 -6.54414203 19.89214682 -7.4375 22.25 C-1.8275 22.25 3.7825 22.25 9.5625 22.25 C5.76183158 19.34437372 5.76183158 19.34437372 1.5625 18.25 C2.0575 16.455625 2.0575 16.455625 2.5625 14.625 C3.45515823 11.09208503 3.74546045 7.90920891 3.5625 4.25 C1.90635343 3.86781233 0.23792976 3.53604898 -1.4375 3.25 Z M21.5625 3.25 C20.27689965 4.31772706 20.27689965 4.31772706 20.375 6.8125 C20.5965362 10.87399692 21.48181721 14.33252489 22.5625 18.25 C21.1084375 18.683125 21.1084375 18.683125 19.625 19.125 C16.45585797 19.89214682 16.45585797 19.89214682 15.5625 22.25 C21.1725 22.25 26.7825 22.25 32.5625 22.25 C28.76183158 19.34437372 28.76183158 19.34437372 24.5625 18.25 C25.0575 16.455625 25.0575 16.455625 25.5625 14.625 C26.45515823 11.09208503 26.74546045 7.90920891 26.5625 4.25 C24.90635343 3.86781233 23.23792976 3.53604898 21.5625 3.25 Z " fill="#000000" transform="translate(12.4375,22.75)"/>
<path d="M0 0 C7.26 0 14.52 0 22 0 C23.36538938 2.73077876 23.13231826 4.95560367 23.125 8 C23.12886719 9.60875 23.12886719 9.60875 23.1328125 11.25 C23 14 23 14 22 16 C19.36 16 16.72 16 14 16 C13.67 17.32 13.34 18.64 13 20 C11.68 20 10.36 20 9 20 C8.67 18.68 8.34 17.36 8 16 C5.36 16 2.72 16 0 16 C0 10.72 0 5.44 0 0 Z M2 3 C1.90176063 4.66429051 1.87026369 6.33281931 1.875 8 C1.87242188 8.9075 1.86984375 9.815 1.8671875 10.75 C1.74826221 12.96966611 1.74826221 12.96966611 3 14 C5.6773138 14.09981214 8.32304175 14.13879875 11 14.125 C12.12535156 14.13080078 12.12535156 14.13080078 13.2734375 14.13671875 C16.93606117 14.47675541 16.93606117 14.47675541 20 13 C20.09823937 11.33570949 20.12973631 9.66718069 20.125 8 C20.12757812 7.0925 20.13015625 6.185 20.1328125 5.25 C20.25173779 3.03033389 20.25173779 3.03033389 19 2 C16.3226862 1.90018786 13.67695825 1.86120125 11 1.875 C10.24976563 1.87113281 9.49953125 1.86726562 8.7265625 1.86328125 C5.06393883 1.52324459 5.06393883 1.52324459 2 3 Z " fill="#000000" transform="translate(14,3)"/>
</svg>
