<?xml version="1.0" standalone="no"?>
<!DOCTYPE svg PUBLIC "-//W3C//DTD SVG 20010904//EN"
 "http://www.w3.org/TR/2001/REC-SVG-20010904/DTD/svg10.dtd">
<svg version="1.0" xmlns="http://www.w3.org/2000/svg"
 width="512.000000pt" height="512.000000pt" viewBox="0 0 512.000000 512.000000"
 preserveAspectRatio="xMidYMid meet">

<g transform="translate(0.000000,512.000000) scale(0.100000,-0.100000)"
fill="#000000" stroke="none">
<path d="M1212 4738 c-17 -17 -17 -949 0 -966 8 -8 53 -12 138 -12 164 0 158
5 162 -158 l3 -123 142 125 c79 69 153 132 165 140 20 14 91 16 578 16 419 0
559 3 568 12 17 17 17 949 0 966 -17 17 -1739 17 -1756 0z m1462 -264 c19 -18
21 -55 4 -72 -17 -17 -1159 -17 -1176 0 -18 18 -15 65 6 77 11 7 217 10 584
11 502 0 568 -2 582 -16z m4 -366 c17 -17 15 -54 -4 -72 -14 -14 -80 -16 -580
-16 -371 0 -572 4 -585 10 -22 12 -26 59 -7 78 17 17 1159 17 1176 0z"/>
<path d="M3080 4046 c0 -288 0 -294 -23 -327 -46 -69 -45 -69 -504 -69 l-413
0 0 -137 c0 -76 4 -144 8 -150 6 -10 144 -13 593 -15 l585 -3 140 -132 139
-133 3 119 c2 95 6 122 19 133 11 9 59 15 152 18 l136 5 3 479 c1 345 -1 483
-9 492 -9 11 -87 14 -420 14 l-409 0 0 -294z"/>
<path d="M1522 3069 c-113 -20 -229 -85 -314 -178 -204 -220 -194 -560 22
-772 109 -108 235 -159 390 -159 161 0 282 50 396 164 176 176 215 435 99 655
-111 210 -360 332 -593 290z"/>
<path d="M3408 2540 c-215 -34 -403 -208 -453 -422 -45 -193 9 -384 149 -524
113 -114 235 -165 391 -165 165 0 285 50 400 166 142 143 195 335 145 529 -27
105 -69 177 -154 261 -127 126 -302 182 -478 155z"/>
<path d="M1205 1843 c-264 -37 -502 -215 -619 -464 -53 -112 -68 -178 -73
-336 l-6 -143 440 0 439 0 38 334 37 333 -37 142 -37 141 -76 -1 c-42 -1 -89
-4 -106 -6z"/>
<path d="M1505 1822 c3 -16 16 -66 28 -113 l22 -84 66 -3 66 -3 30 116 29 115
-124 0 -124 0 7 -28z"/>
<path d="M1818 1709 l-37 -144 35 -310 c19 -170 37 -320 39 -332 l5 -23 264 0
264 0 32 53 c54 88 137 184 210 243 39 31 70 64 70 73 0 26 -63 162 -100 216
-43 64 -142 168 -200 210 -121 89 -277 143 -440 152 l-105 6 -37 -144z"/>
<path d="M1560 1509 c0 -16 -59 -540 -66 -576 l-5 -33 131 0 c71 0 130 3 130
8 0 11 -59 521 -65 570 l-6 42 -60 0 c-35 0 -59 -4 -59 -11z"/>
<path d="M3097 1304 c-205 -37 -408 -162 -533 -327 -111 -148 -174 -332 -174
-508 l0 -99 1110 0 1110 0 0 84 c0 417 -305 779 -715 851 -119 20 -683 20
-798 -1z"/>
</g>
</svg>
