<?xml version="1.0" encoding="UTF-8"?>
<svg version="1.1" xmlns="http://www.w3.org/2000/svg" width="24" height="24">
<path d="M0 0 C7.26 0 14.52 0 22 0 C22 7.26 22 14.52 22 22 C14.74 22 7.48 22 0 22 C0 14.74 0 7.48 0 0 Z M2 1 C1.67 1.99 1.34 2.98 1 4 C7.6 4 14.2 4 21 4 C20.67 3.01 20.34 2.02 20 1 C14.06 1 8.12 1 2 1 Z M1 5 C1 6.32 1 7.64 1 9 C7.6 9 14.2 9 21 9 C21 7.68 21 6.36 21 5 C14.4 5 7.8 5 1 5 Z M1 10 C0.979375 11.629375 0.95875 13.25875 0.9375 14.9375 C0.92589844 15.85402344 0.91429688 16.77054688 0.90234375 17.71484375 C0.74050951 19.96593327 0.74050951 19.96593327 2 21 C4.01964199 21.07244053 6.04167124 21.08377188 8.0625 21.0625 C9.16722656 21.05347656 10.27195312 21.04445313 11.41015625 21.03515625 C12.26480469 21.02355469 13.11945312 21.01195312 14 21 C14 17.37 14 13.74 14 10 C9.71 10 5.42 10 1 10 Z M15 10 C15 13.63 15 17.26 15 21 C16.65 21 18.3 21 20 21 C21.25949049 19.96593327 21.25949049 19.96593327 21.09765625 17.71484375 C21.08605469 16.79832031 21.07445312 15.88179687 21.0625 14.9375 C21.04896484 13.55884766 21.04896484 13.55884766 21.03515625 12.15234375 C21.02355469 11.44207031 21.01195312 10.73179688 21 10 C19.02 10 17.04 10 15 10 Z " fill="#000000" transform="translate(1,1)"/>
<path d="M0 0 C4 1 4 1 4 1 Z " fill="#000000" transform="translate(17,16)"/>
<path d="M0 0 C4 1 4 1 4 1 Z " fill="#000000" transform="translate(17,13)"/>
<path d="M0 0 C3 1 3 1 3 1 Z " fill="#000000" transform="translate(17,19)"/>
<path d="" fill="#000000" transform="translate(0,0)"/>
<path d="" fill="#000000" transform="translate(0,0)"/>
<path d="" fill="#000000" transform="translate(0,0)"/>
</svg>
