<?xml version="1.0" encoding="UTF-8"?>
<svg version="1.1" xmlns="http://www.w3.org/2000/svg" width="32" height="32">
<path d="M0 0 C0.7115625 -0.00773438 1.423125 -0.01546875 2.15625 -0.0234375 C6.23636184 -0.0082132 8.25536135 0.37768067 12 2.25 C12 9.51 12 16.77 12 24.25 C7.71302852 26.39348574 4.6404818 26.55044002 0 26.5 C-0.7115625 26.50773437 -1.423125 26.51546875 -2.15625 26.5234375 C-6.23636184 26.5082132 -8.25536135 26.12231933 -12 24.25 C-12 16.99 -12 9.73 -12 2.25 C-7.71302852 0.10651426 -4.6404818 -0.05044002 0 0 Z M-9 4.25 C-9 5.57 -9 6.89 -9 8.25 C-6.02760209 9.73619895 -3.30380422 9.38177009 0 9.375 C1.258125 9.37757812 2.51625 9.38015625 3.8125 9.3828125 C6.89677818 9.47227358 6.89677818 9.47227358 9 8.25 C9 6.93 9 5.61 9 4.25 C6.02760209 2.76380105 3.30380422 3.11822991 0 3.125 C-1.258125 3.12242188 -2.51625 3.11984375 -3.8125 3.1171875 C-6.89677818 3.02772642 -6.89677818 3.02772642 -9 4.25 Z M-9 11.25 C-9 12.57 -9 13.89 -9 15.25 C-6.02760209 16.73619895 -3.30380422 16.38177009 0 16.375 C1.258125 16.37757812 2.51625 16.38015625 3.8125 16.3828125 C6.89677818 16.47227358 6.89677818 16.47227358 9 15.25 C8.67 13.93 8.34 12.61 8 11.25 C2.39 11.25 -3.22 11.25 -9 11.25 Z M-9 18.25 C-9 19.57 -9 20.89 -9 22.25 C-6.02760209 23.73619895 -3.30380422 23.38177009 0 23.375 C1.258125 23.37757812 2.51625 23.38015625 3.8125 23.3828125 C6.89677818 23.47227358 6.89677818 23.47227358 9 22.25 C8.67 20.93 8.34 19.61 8 18.25 C2.39 18.25 -3.22 18.25 -9 18.25 Z " fill="#000000" transform="translate(16,2.75)"/>
</svg>
