<?xml version="1.0" encoding="UTF-8"?>
<svg version="1.1" xmlns="http://www.w3.org/2000/svg" width="99" height="99">
<path d="M0 0 C1.6875 0.875 1.6875 0.875 2.6875 1.875 C3.934369 12.74057271 -1.55880648 20.49105319 -7.6875 29.0625 C-10.82865271 33.6195511 -12.02706186 36.39726263 -11.4609375 41.8828125 C-11.3125 43.875 -11.3125 43.875 -12.3125 47.0625 C-14.67310081 56.06229057 -13.93171726 64.43015973 -10.3125 72.875 C-9.8125 76.1875 -9.8125 76.1875 -10.3125 78.875 C-12.125 80.8125 -12.125 80.8125 -15.3125 81.875 C-21.22219058 81.92888776 -26.81506021 81.10369181 -32.3125 78.875 C-32.580625 79.65875 -32.84875 80.4425 -33.125 81.25 C-34.3125 83.875 -34.3125 83.875 -37.3125 85.875 C-44.78391075 87.11761358 -52.29618804 87.02853616 -59.8515625 87.00537109 C-61.94017738 86.99999311 -64.02857898 87.00535403 -66.1171875 87.01171875 C-67.4661463 87.01105815 -68.81510497 87.00977737 -70.1640625 87.0078125 C-71.36885254 87.00668457 -72.57364258 87.00555664 -73.81494141 87.00439453 C-83.54300159 86.64449841 -83.54300159 86.64449841 -86.3125 83.875 C-86.53805081 81.34707337 -86.63688591 78.96444424 -86.625 76.4375 C-86.64111328 75.75623047 -86.65722656 75.07496094 -86.67382812 74.37304688 C-86.6787474 69.35046257 -86.6787474 69.35046257 -84.79296875 66.90234375 C-84.30441406 66.56332031 -83.81585938 66.22429687 -83.3125 65.875 C-84.3025 65.215 -85.2925 64.555 -86.3125 63.875 C-86.58918225 61.28073202 -86.68545242 58.96236354 -86.625 56.375 C-86.62822266 55.68535156 -86.63144531 54.99570312 -86.63476562 54.28515625 C-86.57962592 49.14212592 -86.57962592 49.14212592 -84.3125 46.875 C-82.35929871 46.6681366 -82.35929871 46.6681366 -79.94213867 46.72729492 C-79.0374736 46.74358444 -78.13280853 46.75987396 -77.20072937 46.7766571 C-75.73045036 46.81566887 -75.73045036 46.81566887 -74.23046875 46.85546875 C-72.16342402 46.88563907 -70.09636597 46.91490764 -68.02929688 46.94335938 C-64.76353081 46.99911097 -61.49842579 47.06253847 -58.2331543 47.14233398 C-55.08635611 47.21493959 -51.94036102 47.25611169 -48.79296875 47.29296875 C-47.81885544 47.32504929 -46.84474213 47.35712982 -45.84111023 47.3901825 C-40.11823245 47.44041626 -40.11823245 47.44041626 -35.28149414 44.51391602 C-34.63172607 43.64307373 -33.98195801 42.77223145 -33.3125 41.875 C-32.65765625 41.00359375 -32.0028125 40.1321875 -31.328125 39.234375 C-30.74546875 38.37328125 -30.1628125 37.5121875 -29.5625 36.625 C-26.36805556 31.93055556 -26.36805556 31.93055556 -25.3125 30.875 C-23.64632885 30.83436168 -21.97861905 30.832279 -20.3125 30.875 C-20.14596924 30.32682617 -19.97943848 29.77865234 -19.80786133 29.21386719 C-18.01508617 23.55272585 -15.77397156 18.36946589 -13 13.125 C-12.63455078 12.39667969 -12.26910156 11.66835938 -11.89257812 10.91796875 C-9.48120594 6.32844863 -5.89822347 -0.31882289 0 0 Z M-2.3125 3.875 C-7.03291338 8.9589254 -10.38733423 15.19803437 -13.6875 21.25 C-14.36232422 22.45849609 -14.36232422 22.45849609 -15.05078125 23.69140625 C-17.43417613 27.56636286 -17.43417613 27.56636286 -18.3125 31.875 C-16.9925 32.205 -15.6725 32.535 -14.3125 32.875 C-14.6425 31.555 -14.9725 30.235 -15.3125 28.875 C-13.9925 28.545 -12.6725 28.215 -11.3125 27.875 C-11.9725 27.875 -12.6325 27.875 -13.3125 27.875 C-13.3125 26.885 -13.3125 25.895 -13.3125 24.875 C-12.3225 24.875 -11.3325 24.875 -10.3125 24.875 C-10.3125 23.885 -10.3125 22.895 -10.3125 21.875 C-8.9925 21.545 -7.6725 21.215 -6.3125 20.875 C-7.3025 19.555 -8.2925 18.235 -9.3125 16.875 C-7.6625 16.875 -6.0125 16.875 -4.3125 16.875 C-3.9825 14.235 -3.6525 11.595 -3.3125 8.875 C-2.3225 8.545 -1.3325 8.215 -0.3125 7.875 C-0.3125 6.555 -0.3125 5.235 -0.3125 3.875 C-0.9725 3.875 -1.6325 3.875 -2.3125 3.875 Z M-25.1875 34.3125 C-25.55875 34.828125 -25.93 35.34375 -26.3125 35.875 C-25.6404791 38.96313347 -25.6404791 38.96313347 -23.3515625 40.078125 C-22.55492187 40.42359375 -21.75828125 40.7690625 -20.9375 41.125 C-19.75027344 41.65867187 -19.75027344 41.65867187 -18.5390625 42.203125 C-16.17565492 43.14983403 -16.17565492 43.14983403 -13.3125 41.875 C-12.97824265 39.50125139 -12.97824265 39.50125139 -13.3125 36.875 C-16.36958342 33.58275632 -21.29868844 31.33107781 -25.1875 34.3125 Z M-28.3125 40.875 C-29.42625 42.256875 -30.54 43.63875 -31.6875 45.0625 C-37.6205138 51.74107837 -44.74885508 54.82717187 -53.3125 56.875 C-52.9825 57.535 -52.6525 58.195 -52.3125 58.875 C-50.3325 58.875 -48.3525 58.875 -46.3125 58.875 C-47.3025 60.195 -48.2925 61.515 -49.3125 62.875 C-47.6625 62.875 -46.0125 62.875 -44.3125 62.875 C-44.6425 64.195 -44.9725 65.515 -45.3125 66.875 C-43.6625 66.545 -42.0125 66.215 -40.3125 65.875 C-40.6425 67.195 -40.9725 68.515 -41.3125 69.875 C-40.6525 69.875 -39.9925 69.875 -39.3125 69.875 C-38.9825 69.215 -38.6525 68.555 -38.3125 67.875 C-37.3225 67.545 -36.3325 67.215 -35.3125 66.875 C-35.6425 68.855 -35.9725 70.835 -36.3125 72.875 C-34.6625 72.215 -33.0125 71.555 -31.3125 70.875 C-31.6425 72.195 -31.9725 73.515 -32.3125 74.875 C-31.3225 74.875 -30.3325 74.875 -29.3125 74.875 C-29.3125 74.215 -29.3125 73.555 -29.3125 72.875 C-28.3225 72.875 -27.3325 72.875 -26.3125 72.875 C-25.9825 74.195 -25.6525 75.515 -25.3125 76.875 C-24.9825 76.215 -24.6525 75.555 -24.3125 74.875 C-23.6525 74.875 -22.9925 74.875 -22.3125 74.875 C-21.6525 75.865 -20.9925 76.855 -20.3125 77.875 C-19.6525 76.555 -18.9925 75.235 -18.3125 73.875 C-17.6525 75.195 -16.9925 76.515 -16.3125 77.875 C-15.3225 77.545 -14.3325 77.215 -13.3125 76.875 C-13.5290625 76.24335937 -13.745625 75.61171875 -13.96875 74.9609375 C-17.02090428 65.15447884 -16.99374507 55.96247044 -15.3125 45.875 C-19.6025 44.225 -23.8925 42.575 -28.3125 40.875 Z M-83.3125 50.875 C-83.38455511 52.56108966 -83.39636068 54.25000659 -83.375 55.9375 C-83.36597656 56.85660156 -83.35695313 57.77570312 -83.34765625 58.72265625 C-83.33605469 59.43292969 -83.32445313 60.14320312 -83.3125 60.875 C-79.93551212 62.91673535 -77.36703777 63.11025039 -73.453125 63.0703125 C-72.33808594 63.06386719 -71.22304687 63.05742188 -70.07421875 63.05078125 C-68.33591797 63.02564453 -68.33591797 63.02564453 -66.5625 63 C-65.38816406 62.99097656 -64.21382812 62.98195313 -63.00390625 62.97265625 C-60.10656464 62.94910063 -57.20963559 62.91620652 -54.3125 62.875 C-54.6425 62.111875 -54.9725 61.34875 -55.3125 60.5625 C-56.3125 57.875 -56.3125 57.875 -56.3125 54.875 C-55.39726563 54.60945313 -54.48203125 54.34390625 -53.5390625 54.0703125 C-52.35054687 53.71710937 -51.16203125 53.36390625 -49.9375 53 C-48.75414062 52.65195312 -47.57078125 52.30390625 -46.3515625 51.9453125 C-43.24758442 51.09812581 -43.24758442 51.09812581 -41.3125 48.875 C-63.36812303 46.71169275 -63.36812303 46.71169275 -83.3125 50.875 Z M-63.2668457 69.11694336 C-65.37108507 69.18736897 -67.47534411 69.24160948 -69.58007812 69.29492188 C-70.91930257 69.33755627 -72.25849708 69.38114365 -73.59765625 69.42578125 C-74.81332275 69.46356689 -76.02898926 69.50135254 -77.28149414 69.5402832 C-80.4869142 69.65903973 -80.4869142 69.65903973 -83.3125 71.875 C-83.67666047 74.31193311 -83.67666047 74.31193311 -83.5 77 C-83.47292969 77.91007812 -83.44585937 78.82015625 -83.41796875 79.7578125 C-83.38316406 80.45648438 -83.34835938 81.15515625 -83.3125 81.875 C-81.02863197 83.01693402 -79.72442908 83.01303338 -77.18579102 83.03613281 C-75.90920372 83.05054413 -75.90920372 83.05054413 -74.60682678 83.06524658 C-73.22556862 83.0716214 -73.22556862 83.0716214 -71.81640625 83.078125 C-70.87192123 83.08382507 -69.92743622 83.08952515 -68.95433044 83.09539795 C-66.95450971 83.10485293 -64.95467336 83.1113839 -62.95483398 83.11523438 C-59.89083823 83.12494978 -56.82751038 83.15597244 -53.76367188 83.1875 C-51.82292066 83.19402895 -49.88216464 83.19927985 -47.94140625 83.203125 C-47.02259171 83.2154718 -46.10377716 83.2278186 -45.15711975 83.24053955 C-44.30290939 83.23753845 -43.44869904 83.23453735 -42.56860352 83.23144531 C-41.44180931 83.23691376 -41.44180931 83.23691376 -40.29225159 83.24249268 C-37.74213221 82.76912511 -36.84356237 81.94110402 -35.3125 79.875 C-35.3125 78.885 -35.3125 77.895 -35.3125 76.875 C-37.62663748 74.97613031 -37.62663748 74.97613031 -40.5625 73.25 C-42.02429687 72.33347656 -42.02429687 72.33347656 -43.515625 71.3984375 C-49.81331799 67.96812987 -56.30465795 68.8764744 -63.2668457 69.11694336 Z " fill="#000000" transform="translate(91.3125,6.125)"/>
<path d="M0 0 C2.77303766 2.04606795 2.97424543 2.89301946 3.8125 6.375 C4.00150418 10.02908078 3.72284109 11.82634536 2 15 C-1.0478686 18.0478686 -4.06723442 18.12178626 -8.24609375 18.16113281 C-9.07375244 18.17074036 -9.90141113 18.1803479 -10.75415039 18.19024658 C-12.08240845 18.1966214 -12.08240845 18.1966214 -13.4375 18.203125 C-14.8131311 18.21167511 -14.8131311 18.21167511 -16.21655273 18.22039795 C-18.15314586 18.22983128 -20.08975493 18.2363753 -22.02636719 18.24023438 C-24.9892152 18.24996458 -27.95137646 18.28101347 -30.9140625 18.3125 C-32.79687089 18.31902807 -34.67968422 18.32427931 -36.5625 18.328125 C-37.44800537 18.3404718 -38.33351074 18.3528186 -39.24584961 18.36553955 C-45.33058155 18.34347625 -45.33058155 18.34347625 -48.56323242 16.68481445 C-50.88604645 13.96098444 -50.41700294 11.42213237 -50.3125 7.9375 C-50.28800781 6.68839844 -50.26351562 5.43929687 -50.23828125 4.15234375 C-50 1 -50 1 -49 -1 C-36.19467318 -5.69292481 -13.25030355 -3.48986868 0 0 Z M-47 3 C-47.09823937 4.66429051 -47.12973631 6.33281931 -47.125 8 C-47.12757812 8.9075 -47.13015625 9.815 -47.1328125 10.75 C-47.25173779 12.96966611 -47.25173779 12.96966611 -46 14 C-36.88943395 15.16077393 -27.66958271 15.18259123 -18.5 15.1875 C-17.26507813 15.19974609 -16.03015625 15.21199219 -14.7578125 15.22460938 C-13.56929687 15.22654297 -12.38078125 15.22847656 -11.15625 15.23046875 C-9.56006836 15.23663208 -9.56006836 15.23663208 -7.93164062 15.24291992 C-4.88172261 14.99019937 -2.71977218 14.38702283 0 13 C1.42041821 10.15916359 1.31452272 8.14522722 1 5 C-0.45809127 2.67218756 -0.45809127 2.67218756 -3 1 C-5.8105199 0.63789232 -8.21739957 0.50835332 -11.01953125 0.57421875 C-11.79632736 0.57750687 -12.57312347 0.58079498 -13.37345886 0.58418274 C-15.8537078 0.59990779 -18.33260125 0.64391697 -20.8125 0.6875 C-22.46938994 0.69899606 -24.1262927 0.70877983 -25.78320312 0.71679688 C-27.38282616 0.73023235 -28.98243751 0.74515844 -30.58203125 0.76171875 C-31.32081009 0.76910568 -32.05958893 0.77649261 -32.820755 0.78410339 C-40.48369035 0.44483481 -40.48369035 0.44483481 -47 3 Z " fill="#000000" transform="translate(55,34)"/>
<path d="M0 0 C1.2684375 0.0309375 1.2684375 0.0309375 2.5625 0.0625 C3.2225 0.0625 3.8825 0.0625 4.5625 0.0625 C8.5625 0.0625 12.5625 0.0625 16.5625 0.0625 C16.5625 1.7125 16.5625 3.3625 16.5625 5.0625 C12.68614809 5.90063014 9.62291635 6.26997276 5.6875 5.5 C2.61077522 5.06925853 0.53807282 5.27484837 -2.4375 6.0625 C-2.81968767 4.40635343 -3.15145102 2.73792976 -3.4375 1.0625 C-2.4375 0.0625 -2.4375 0.0625 0 0 Z " fill="#000000" transform="translate(13.4375,79.9375)"/>
<path d="M0 0 C1.2684375 0.0309375 1.2684375 0.0309375 2.5625 0.0625 C3.2225 0.0625 3.8825 0.0625 4.5625 0.0625 C8.5625 0.0625 12.5625 0.0625 16.5625 0.0625 C16.5625 1.7125 16.5625 3.3625 16.5625 5.0625 C12.68614809 5.90063014 9.62291635 6.26997276 5.6875 5.5 C2.61077522 5.06925853 0.53807282 5.27484837 -2.4375 6.0625 C-2.81968767 4.40635343 -3.15145102 2.73792976 -3.4375 1.0625 C-2.4375 0.0625 -2.4375 0.0625 0 0 Z " fill="#000000" transform="translate(13.4375,38.9375)"/>
<path d="M0 0 C14.25 0 14.25 0 19 1 C18.67 2.65 18.34 4.3 18 6 C17.113125 5.814375 16.22625 5.62875 15.3125 5.4375 C12.11034331 5.01457364 10.09324592 5.24758883 7 6 C4.16032769 6 1.76264289 5.59732819 -1 5 C-0.67 3.35 -0.34 1.7 0 0 Z " fill="#000000" transform="translate(11,59)"/>
<path d="M0 0 C0.9796875 -0.00257812 1.959375 -0.00515625 2.96875 -0.0078125 C5.5 0.125 5.5 0.125 7.5 1.125 C7.5 1.785 7.5 2.445 7.5 3.125 C2.26528314 3.88112577 -2.27254141 4.3313366 -7.5 3.125 C-7.5 2.465 -7.5 1.805 -7.5 1.125 C-4.89080172 -0.17959914 -2.91057385 -0.0076594 0 0 Z " fill="#000000" transform="translate(41.5,40.875)"/>
<path d="M0 0 C0 0.66 0 1.32 0 2 C-2.60919828 3.30459914 -4.58942615 3.1326594 -7.5 3.125 C-8.4796875 3.12757812 -9.459375 3.13015625 -10.46875 3.1328125 C-13 3 -13 3 -15 2 C-15 1.34 -15 0.68 -15 0 C-9.65370398 -1.0024305 -5.37625234 -0.84888195 0 0 Z " fill="#000000" transform="translate(49,82)"/>
</svg>
