<?xml version="1.0" standalone="no"?>
<!DOCTYPE svg PUBLIC "-//W3C//DTD SVG 20010904//EN"
 "http://www.w3.org/TR/2001/REC-SVG-20010904/DTD/svg10.dtd">
<svg version="1.0" xmlns="http://www.w3.org/2000/svg"
 width="50.000000pt" height="50.000000pt" viewBox="0 0 50.000000 50.000000"
 preserveAspectRatio="xMidYMid meet">

<g transform="translate(0.000000,50.000000) scale(0.100000,-0.100000)"
fill="#000000" stroke="none">
<path d="M22 438 c-17 -17 -17 -299 0 -316 14 -14 108 -16 108 -3 0 6 -21 11
-47 13 l-48 3 0 145 0 145 215 0 215 0 0 -145 0 -145 -27 -3 c-16 -2 -28 -8
-28 -13 0 -13 54 -11 68 3 17 17 17 299 0 316 -17 17 -439 17 -456 0z"/>
<path d="M188 364 c-42 -22 -80 -114 -48 -114 6 0 10 12 10 26 0 37 50 84 90
84 40 0 90 -47 90 -84 0 -14 5 -26 10 -26 15 0 12 37 -5 70 -28 54 -94 74
-147 44z"/>
<path d="M192 317 c-22 -23 -30 -57 -13 -57 5 0 12 11 15 24 3 14 15 28 26 31
31 10 59 -4 66 -31 7 -28 24 -32 24 -6 0 26 -42 62 -71 62 -14 0 -35 -10 -47
-23z"/>
<path d="M217 294 c-4 -4 -7 -39 -7 -77 0 -61 -2 -68 -15 -57 -12 10 -18 10
-30 0 -24 -20 -18 -34 35 -84 44 -41 54 -46 95 -46 36 0 52 6 71 25 22 22 25
32 22 82 -3 49 -6 58 -23 61 -82 14 -94 21 -97 60 -2 28 -8 38 -23 40 -12 2
-24 0 -28 -4z m33 -69 c0 -30 5 -55 10 -55 6 0 10 7 10 15 0 8 5 15 10 15 6 0
10 -7 10 -15 0 -8 5 -15 10 -15 6 0 10 5 10 10 0 6 5 10 10 10 6 0 10 -7 10
-15 0 -8 5 -15 10 -15 6 0 10 5 10 10 0 6 5 10 10 10 6 0 10 -21 10 -47 0 -61
-20 -83 -74 -83 -36 0 -48 6 -86 45 -24 24 -41 47 -38 50 3 3 11 -1 18 -10 7
-8 19 -15 26 -15 11 0 14 19 14 80 0 47 4 80 10 80 6 0 10 -25 10 -55z"/>
</g>
</svg>
