<?xml version="1.0" encoding="UTF-8"?>
<svg version="1.1" xmlns="http://www.w3.org/2000/svg" width="66" height="66">
<path d="M0 0 C0.99 0 1.98 0 3 0 C3.33 2.64 3.66 5.28 4 8 C5.65 8 7.3 8 9 8 C9.33 5.36 9.66 2.72 10 0 C10.99 0 11.98 0 13 0 C13 2.64 13 5.28 13 8 C14.98 8 16.96 8 19 8 C19 5.69 19 3.38 19 1 C20.32 1 21.64 1 23 1 C23 3.31 23 5.62 23 8 C24.98 8 26.96 8 29 8 C29 5.36 29 2.72 29 0 C29.99 0 30.98 0 32 0 C32.495 3.96 32.495 3.96 33 8 C35.475 8.495 35.475 8.495 38 9 C38 10.32 38 11.64 38 13 C40.64 13.33 43.28 13.66 46 14 C45.67 14.99 45.34 15.98 45 17 C42.69 17 40.38 17 38 17 C38 18.98 38 20.96 38 23 C40.31 23 42.62 23 45 23 C45.495 24.485 45.495 24.485 46 26 C42.04 26.495 42.04 26.495 38 27 C38.495 29.475 38.495 29.475 39 32 C41.31 32.33 43.62 32.66 46 33 C46 33.99 46 34.98 46 36 C43.36 36 40.72 36 38 36 C38 37.98 38 39.96 38 42 C40.64 42.33 43.28 42.66 46 43 C45.67 43.99 45.34 44.98 45 46 C42.69 46 40.38 46 38 46 C37.67 47.65 37.34 49.3 37 51 C35.68 51 34.36 51 33 51 C32.67 53.31 32.34 55.62 32 58 C37.94 58 43.88 58 50 58 C50 58.66 50 59.32 50 60 C28.22 60 6.44 60 -16 60 C-16 59.34 -16 58.68 -16 58 C-10.72 58 -5.44 58 0 58 C0 55.69 0 53.38 0 51 C-1.65 51 -3.3 51 -5 51 C-5.33 49.35 -5.66 47.7 -6 46 C-8.31 46 -10.62 46 -13 46 C-13.495 44.515 -13.495 44.515 -14 43 C-11.36 42.67 -8.72 42.34 -6 42 C-6 40.02 -6 38.04 -6 36 C-8.31 36 -10.62 36 -13 36 C-13 35.01 -13 34.02 -13 33 C-10.69 33 -8.38 33 -6 33 C-6 31.02 -6 29.04 -6 27 C-8.31 26.67 -10.62 26.34 -13 26 C-13 25.01 -13 24.02 -13 23 C-10.69 23 -8.38 23 -6 23 C-6 21.02 -6 19.04 -6 17 C-8.31 17 -10.62 17 -13 17 C-13.33 16.01 -13.66 15.02 -14 14 C-9.545 13.505 -9.545 13.505 -5 13 C-5 11.35 -5 9.7 -5 8 C-3.35 8 -1.7 8 0 8 C0 5.36 0 2.72 0 0 Z M0 15 C0 24.9 0 34.8 0 45 C0.33 45 0.66 45 1 45 C1 35.1 1 25.2 1 15 C0.67 15 0.34 15 0 15 Z M2 45 C2 45.33 2 45.66 2 46 C11.57 46 21.14 46 31 46 C31 45.67 31 45.34 31 45 C21.43 45 11.86 45 2 45 Z M4 51 C3.67 53.31 3.34 55.62 3 58 C5.31 58 7.62 58 10 58 C9.67 55.69 9.34 53.38 9 51 C7.35 51 5.7 51 4 51 Z M13 51 C13 53.31 13 55.62 13 58 C14.98 58 16.96 58 19 58 C19 55.69 19 53.38 19 51 C17.02 51 15.04 51 13 51 Z M23 51 C23 53.31 23 55.62 23 58 C24.98 58 26.96 58 29 58 C29.04254356 56.00045254 29.04080783 53.99958364 29 52 C27.93354885 50.70366379 27.93354885 50.70366379 25.4375 50.9375 C24.633125 50.958125 23.82875 50.97875 23 51 Z " fill="#000000" transform="translate(16,3)"/>
</svg>
