<?xml version="1.0" standalone="no"?>
<!DOCTYPE svg PUBLIC "-//W3C//DTD SVG 20010904//EN"
 "http://www.w3.org/TR/2001/REC-SVG-20010904/DTD/svg10.dtd">
<svg version="1.0" xmlns="http://www.w3.org/2000/svg"
 width="64.000000pt" height="64.000000pt" viewBox="0 0 64.000000 64.000000"
 preserveAspectRatio="xMidYMid meet">

<g transform="translate(0.000000,64.000000) scale(0.100000,-0.100000)"
fill="#000000" stroke="none">
<path d="M383 618 c6 -22 4 -23 -66 -23 -111 0 -192 -50 -245 -150 -22 -41
-27 -63 -27 -127 0 -42 5 -82 11 -88 7 -7 10 16 10 77 -1 68 3 96 18 123 26
49 74 98 121 122 44 23 165 38 165 20 0 -6 -6 -12 -12 -15 -7 -2 -10 -7 -6
-11 6 -7 68 20 68 30 0 10 -31 64 -36 64 -4 0 -4 -10 -1 -22z"/>
<path d="M455 575 c-18 -17 -25 -35 -25 -64 0 -22 4 -43 10 -46 5 -3 15 -25
21 -48 6 -23 16 -48 21 -54 25 -31 78 -2 78 44 0 14 9 36 20 50 29 37 26 79
-9 114 -38 37 -82 39 -116 4z m105 -17 c26 -28 25 -50 -2 -98 -31 -55 -66 -55
-90 -1 -24 51 -23 86 4 105 31 22 64 20 88 -6z m-22 -170 c-3 -7 -13 -13 -23
-13 -10 0 -20 6 -22 13 -3 7 5 12 22 12 17 0 25 -5 23 -12z"/>
<path d="M310 324 c-45 -97 -44 -94 -30 -94 8 0 90 161 90 176 0 2 -5 4 -10 4
-6 0 -28 -39 -50 -86z"/>
<path d="M205 350 l-29 -30 32 -32 c36 -37 57 -30 22 7 l-23 25 21 23 c12 13
22 26 22 30 0 15 -17 6 -45 -23z"/>
<path d="M390 373 c0 -4 10 -17 22 -30 l21 -23 -23 -25 c-35 -37 -14 -44 22
-7 l32 32 -29 30 c-28 29 -45 38 -45 23z"/>
<path d="M578 312 c-8 -103 -59 -182 -148 -227 -40 -21 -160 -33 -160 -17 0 6
6 12 13 15 6 2 9 7 5 11 -6 7 -68 -20 -68 -30 0 -10 31 -64 36 -64 4 0 4 10 1
23 -6 21 -4 22 66 22 113 1 196 53 247 155 24 48 39 163 23 173 -6 4 -12 -20
-15 -61z"/>
<path d="M100 251 c0 -5 6 -12 13 -15 9 -5 8 -8 -3 -13 -35 -15 -70 -62 -70
-93 0 -43 47 -90 90 -90 65 0 113 85 76 135 -8 11 -11 25 -8 33 3 10 0 13 -14
8 -22 -7 -57 12 -36 21 23 9 12 23 -18 23 -16 0 -30 -4 -30 -9z m75 -76 c14
-13 25 -33 25 -45 0 -27 -43 -70 -70 -70 -28 0 -70 43 -70 71 0 30 38 69 67
69 13 0 35 -11 48 -25z"/>
<path d="M120 150 c0 -16 5 -30 10 -30 6 0 10 14 10 30 0 17 -4 30 -10 30 -5
0 -10 -13 -10 -30z"/>
</g>
</svg>
