<?xml version="1.0" standalone="no"?>
<!DOCTYPE svg PUBLIC "-//W3C//DTD SVG 20010904//EN"
 "http://www.w3.org/TR/2001/REC-SVG-20010904/DTD/svg10.dtd">
<svg version="1.0" xmlns="http://www.w3.org/2000/svg"
 width="512.000000pt" height="512.000000pt" viewBox="0 0 512.000000 512.000000"
 preserveAspectRatio="xMidYMid meet">

<g transform="translate(0.000000,512.000000) scale(0.100000,-0.100000)"
fill="#000000" stroke="none">
<path d="M2525 4050 c-45 -15 -1016 -487 -1037 -504 -26 -23 -33 -62 -15 -90
9 -14 74 -54 147 -92 l130 -69 0 -275 c0 -206 3 -280 13 -293 27 -36 238 -104
447 -143 169 -32 425 -43 590 -24 245 27 550 108 603 161 l27 27 0 274 0 273
57 30 c31 17 60 32 65 33 4 2 8 -44 8 -102 0 -115 9 -148 47 -165 35 -16 49
-14 80 13 l28 24 0 198 0 197 -30 24 c-16 13 -254 132 -529 264 -524 253 -552
264 -631 239z"/>
<path d="M899 4036 c-56 -15 -125 -55 -162 -93 -33 -36 -477 -1000 -503 -1094
-13 -45 -18 -97 -17 -174 0 -117 16 -192 114 -535 37 -129 41 -158 43 -260 0
-66 -5 -141 -13 -177 -12 -56 -16 -62 -42 -67 -16 -4 -42 -9 -58 -12 -45 -8
-108 -59 -133 -106 -16 -33 -23 -66 -26 -137 -6 -127 9 -187 59 -244 69 -80
55 -78 706 -75 l570 3 48 30 c36 22 57 45 77 84 26 49 28 62 28 167 0 126 -11
168 -58 217 -34 36 -93 67 -128 67 -17 0 -24 4 -21 13 3 6 21 48 41 92 53 122
77 224 83 355 4 108 1 134 -56 447 -38 211 -67 346 -80 371 -43 85 -160 152
-265 152 l-53 0 134 312 c80 185 137 331 140 359 24 200 -207 365 -428 305z
m178 -157 c39 -12 89 -67 97 -106 5 -23 -29 -112 -180 -458 -102 -237 -191
-452 -197 -479 -10 -42 -7 -77 27 -275 21 -124 42 -236 47 -248 22 -60 106
-67 135 -12 14 27 12 46 -26 260 -22 126 -37 241 -34 254 9 37 66 82 114 90
55 9 121 -10 155 -45 24 -25 31 -54 81 -326 30 -165 58 -329 61 -366 11 -126
-35 -312 -115 -460 l-36 -68 -349 0 -348 0 8 48 c4 26 7 115 7 197 -1 149 -2
151 -52 325 -112 385 -125 477 -88 604 29 98 444 997 476 1030 48 49 128 62
217 35z m-548 -2460 c56 -20 69 -82 25 -126 -23 -23 -31 -25 -101 -21 -64 3
-78 7 -94 27 -35 42 -19 100 32 120 33 13 100 13 138 0z"/>
<path d="M4028 4036 c-98 -28 -164 -82 -211 -170 -16 -31 -21 -58 -21 -111 0
-68 5 -81 136 -382 l135 -313 -47 0 c-107 0 -210 -55 -263 -141 -24 -39 -36
-91 -87 -379 -65 -359 -71 -440 -46 -573 17 -86 58 -211 92 -279 30 -58 30
-58 -1 -58 -34 0 -93 -31 -127 -67 -47 -49 -58 -91 -58 -217 0 -105 2 -118 28
-167 20 -39 41 -62 77 -84 l48 -30 570 -3 c651 -3 637 -5 706 75 50 57 65 117
59 244 -3 71 -10 104 -26 137 -25 47 -88 98 -133 106 -16 3 -42 8 -57 11 -25
5 -30 13 -41 58 -34 148 -25 266 39 487 92 320 104 377 104 500 1 84 -4 131
-18 175 -10 32 -121 284 -247 559 -164 358 -238 509 -261 533 -18 19 -60 48
-94 64 -73 36 -181 47 -256 25z m178 -157 c17 -5 42 -22 56 -37 30 -31 448
-939 474 -1027 36 -126 21 -229 -87 -603 -51 -176 -52 -178 -53 -327 0 -82 3
-171 7 -197 l8 -48 -349 0 -350 0 -46 93 c-57 115 -95 248 -103 352 -4 69 3
125 51 395 31 173 59 324 62 335 17 58 103 102 179 91 51 -8 111 -53 121 -90
3 -12 -13 -126 -36 -253 -44 -250 -43 -269 7 -292 35 -16 49 -14 78 12 24 20
29 42 65 242 45 252 48 302 19 365 -27 58 -354 820 -362 842 -10 27 11 82 42
112 51 49 130 62 217 35z m523 -2460 c55 -19 69 -82 26 -124 -21 -22 -33 -25
-95 -25 -62 0 -74 3 -95 25 -25 24 -31 57 -19 90 15 38 116 57 183 34z"/>
</g>
</svg>
