<?xml version="1.0" encoding="UTF-8"?>
<svg version="1.1" xmlns="http://www.w3.org/2000/svg" width="32" height="32">
<path d="M0 0 C7.92 0 15.84 0 24 0 C24 7.26 24 14.52 24 22 C16.08 22 8.16 22 0 22 C0 14.74 0 7.48 0 0 Z M2 2 C2 2.66 2 3.32 2 4 C8.6 4 15.2 4 22 4 C22 3.34 22 2.68 22 2 C15.4 2 8.8 2 2 2 Z M2 6 C2 10.62 2 15.24 2 20 C8.6 20 15.2 20 22 20 C22 15.38 22 10.76 22 6 C15.4 6 8.8 6 2 6 Z " fill="#000000" transform="translate(4,5)"/>
<path d="M0 0 C0.66 0 1.32 0 2 0 C3.625 2 3.625 2 5 4 C4 6 3 8 2 10 C1.01 9.67 0.02 9.34 -1 9 C-0.835 8.2575 -0.67 7.515 -0.5 6.75 C0.11925696 3.80993422 0.11925696 3.80993422 0 0 Z " fill="#000000" transform="translate(20,13)"/>
<path d="M0 0 C0.99 0.33 1.98 0.66 3 1 C2.835 1.7425 2.67 2.485 2.5 3.25 C1.88074304 6.19006578 1.88074304 6.19006578 2 10 C1.34 10 0.68 10 0 10 C-1.625 8 -1.625 8 -3 6 C-2 4 -1 2 0 0 Z " fill="#000000" transform="translate(10,13)"/>
<path d="M0 0 C0.99 0 1.98 0 3 0 C2.67 3.3 2.34 6.6 2 10 C1.01 10 0.02 10 -1 10 C-0.67 6.7 -0.34 3.4 0 0 Z " fill="#000000" transform="translate(15,13)"/>
</svg>
