<?xml version="1.0" standalone="no"?>
<!DOCTYPE svg PUBLIC "-//W3C//DTD SVG 20010904//EN"
 "http://www.w3.org/TR/2001/REC-SVG-20010904/DTD/svg10.dtd">
<svg version="1.0" xmlns="http://www.w3.org/2000/svg"
 width="512.000000pt" height="512.000000pt" viewBox="0 0 512.000000 512.000000"
 preserveAspectRatio="xMidYMid meet">

<g transform="translate(0.000000,512.000000) scale(0.100000,-0.100000)"
fill="#000000" stroke="none">
<path d="M2167 4594 c-229 -41 -438 -198 -542 -407 l-46 -92 -71 -3 c-125 -5
-242 -56 -333 -147 -88 -88 -141 -205 -147 -323 l-3 -61 -50 -16 c-94 -31
-177 -85 -265 -174 -94 -94 -145 -181 -176 -301 -22 -80 -24 -243 -5 -320 19
-78 74 -194 122 -257 l40 -54 -43 -48 c-155 -172 -178 -424 -57 -612 43 -68
139 -154 208 -186 l58 -27 0 -106 c-1 -72 5 -124 17 -165 60 -204 218 -361
421 -421 95 -27 251 -22 340 12 8 4 20 -7 30 -25 27 -53 146 -172 222 -221 92
-61 181 -96 289 -115 94 -16 135 -18 183 -9 l31 7 0 382 0 382 -38 26 c-68 45
-159 86 -239 109 -111 32 -286 31 -397 0 -102 -29 -216 -89 -284 -148 l-54
-47 -89 89 c-49 49 -88 92 -87 96 6 16 112 97 175 134 65 38 65 38 60 76 -8
63 -61 161 -115 215 -60 60 -134 99 -217 114 -33 7 -66 13 -72 15 -10 2 -13
37 -13 130 l0 126 68 -7 c268 -28 508 -220 584 -468 18 -62 23 -68 42 -62 11
4 86 9 166 12 170 6 282 -12 424 -70 l86 -34 0 465 0 465 -61 -6 c-173 -15
-327 -168 -360 -355 l-11 -62 -126 0 -125 0 6 69 c3 38 17 103 32 144 l26 76
-55 73 c-63 82 -116 185 -141 273 -10 33 -19 61 -20 63 -2 2 -35 -8 -73 -22
-151 -54 -302 -56 -455 -5 -71 23 -176 84 -226 130 l-34 31 90 90 90 90 53
-40 c78 -59 169 -86 273 -80 98 6 177 34 234 83 35 30 43 44 57 105 29 130
117 300 193 372 l28 27 88 -84 c48 -45 87 -86 87 -90 0 -4 -15 -25 -34 -48
-85 -106 -127 -225 -129 -362 -1 -133 32 -246 103 -350 l31 -45 50 40 c92 73
270 140 371 140 l38 0 0 383 c0 416 -4 456 -57 546 -66 113 -191 197 -310 210
l-58 6 -3 128 -3 127 38 0 c101 -1 249 -52 348 -120 l45 -31 0 284 0 285 -31
6 c-46 9 -104 6 -192 -10z"/>
<path d="M3076 4594 c-32 -10 -65 -32 -98 -65 l-49 -49 -139 0 -140 0 0 -130
0 -130 143 0 142 0 39 -41 c49 -53 107 -79 175 -79 74 0 124 17 172 59 104 88
119 244 35 354 -58 76 -183 112 -280 81z"/>
<path d="M4290 4601 c-48 -15 -88 -40 -126 -81 l-38 -40 -101 0 -100 0 -255
-255 -255 -255 -382 0 -383 0 0 -130 0 -130 433 0 432 0 255 255 255 255 52 0
c49 0 56 -3 88 -39 79 -87 221 -107 321 -45 96 59 141 179 109 290 -36 126
-185 211 -305 175z"/>
<path d="M3395 3561 c-22 -10 -58 -37 -80 -60 l-39 -41 -313 0 -313 0 0 -130
0 -130 311 0 310 0 48 -49 c129 -132 344 -90 416 82 22 53 19 151 -6 203 -23
49 -86 110 -135 130 -48 20 -150 18 -199 -5z"/>
<path d="M4260 3567 c-49 -16 -133 -103 -148 -153 -7 -23 -12 -68 -12 -100 l0
-59 -158 -158 -157 -157 -568 0 -567 0 0 -125 0 -125 568 0 567 0 158 -158
157 -157 0 -65 c1 -181 159 -300 332 -248 48 14 123 78 147 127 63 123 12 278
-113 344 -30 16 -60 22 -114 22 l-73 1 -130 130 -129 129 132 133 133 132 42
-6 c152 -22 300 129 278 286 -10 70 -60 148 -119 185 -41 25 -61 30 -120 32
-39 1 -87 -3 -106 -10z"/>
<path d="M3260 2551 c-49 -15 -89 -41 -122 -81 l-35 -40 -226 0 -227 0 0 -125
0 -125 225 0 225 0 38 -42 c159 -177 441 -70 442 168 0 109 -67 204 -169 239
-47 16 -109 18 -151 6z"/>
<path d="M3769 2036 c-55 -19 -106 -54 -130 -87 l-20 -29 -485 0 -484 0 0
-130 0 -130 485 0 485 0 36 -39 c51 -57 106 -81 185 -81 77 0 129 22 181 76
50 53 71 106 71 180 -1 110 -74 208 -177 239 -60 18 -99 18 -147 1z"/>
<path d="M2650 1280 l0 -130 383 0 382 0 255 -255 255 -255 100 0 101 0 38
-40 c107 -113 260 -117 366 -10 88 87 101 204 37 312 -85 141 -291 160 -402
37 -32 -36 -39 -39 -88 -39 l-52 0 -255 255 -255 255 -432 0 -433 0 0 -130z"/>
<path d="M3054 1001 c-23 -11 -59 -38 -80 -60 l-39 -41 -142 0 -143 0 0 -130
0 -130 140 0 139 0 49 -49 c163 -163 432 -52 432 176 0 107 -74 213 -169 241
-57 18 -140 14 -187 -7z"/>
</g>
</svg>
