<?xml version="1.0" standalone="no"?>
<!DOCTYPE svg PUBLIC "-//W3C//DTD SVG 20010904//EN"
 "http://www.w3.org/TR/2001/REC-SVG-20010904/DTD/svg10.dtd">
<svg version="1.0" xmlns="http://www.w3.org/2000/svg"
 width="512.000000pt" height="512.000000pt" viewBox="0 0 512.000000 512.000000"
 preserveAspectRatio="xMidYMid meet">

<g transform="translate(0.000000,512.000000) scale(0.100000,-0.100000)"
fill="#000000" stroke="none">
<path d="M3280 4387 c-49 -16 -133 -102 -148 -153 -7 -23 -12 -67 -12 -97 l0
-57 -1368 -2 -1368 -3 -76 -37 c-91 -45 -147 -103 -191 -196 l-32 -67 0 -1376
0 -1375 37 -76 c45 -91 103 -147 196 -191 l67 -32 2175 0 2175 0 67 32 c93 44
151 100 196 191 l37 76 0 1376 0 1376 -37 76 c-70 140 -187 216 -349 226 l-89
5 0 55 c0 79 -18 127 -67 182 -73 82 -60 80 -657 79 -349 -1 -533 -5 -556 -12z
m1095 -172 c25 -24 25 -26 25 -215 0 -189 0 -191 -25 -215 l-24 -25 -511 0
-511 0 -24 25 c-25 24 -25 26 -25 215 0 189 0 191 25 215 l24 25 511 0 511 0
24 -25z m-1255 -351 c0 -31 5 -75 12 -98 16 -55 99 -138 154 -154 59 -17 1049
-17 1108 0 55 16 138 99 154 154 7 23 12 67 12 98 l0 56 56 0 c31 0 75 -5 98
-12 55 -16 138 -99 154 -154 9 -31 12 -272 12 -978 l0 -936 -480 0 -480 0 0
-480 0 -480 -1736 0 c-1334 0 -1746 3 -1778 12 -55 16 -138 99 -154 154 -17
60 -17 2648 0 2708 15 51 99 137 148 153 25 8 429 11 1378 12 l1342 1 0 -56z
m1760 -2480 c0 -204 -4 -310 -12 -338 -16 -55 -99 -138 -154 -154 -28 -8 -134
-12 -338 -12 l-296 0 0 400 0 400 400 0 400 0 0 -296z"/>
<path d="M3440 4000 l0 -80 80 0 80 0 0 80 0 80 -80 0 -80 0 0 -80z"/>
<path d="M3760 4000 l0 -80 80 0 80 0 0 80 0 80 -80 0 -80 0 0 -80z"/>
<path d="M4080 4000 l0 -80 80 0 80 0 0 80 0 80 -80 0 -80 0 0 -80z"/>
<path d="M560 3747 c-19 -6 -58 -34 -85 -62 -71 -70 -91 -145 -63 -239 16 -55
99 -138 154 -154 94 -28 169 -8 239 63 98 97 101 222 8 325 -65 72 -158 97
-253 67z m135 -172 c50 -49 15 -135 -55 -135 -41 0 -80 39 -80 80 0 41 39 80
80 80 19 0 40 -9 55 -25z"/>
<path d="M1040 3281 l0 -159 -35 -6 c-51 -10 -103 -60 -117 -112 l-12 -44
-158 0 -158 0 0 -80 0 -80 160 0 160 0 0 -80 0 -80 -160 0 -160 0 0 -80 0 -80
160 0 160 0 0 -80 0 -80 -160 0 -160 0 0 -80 0 -80 160 0 160 0 0 -80 0 -80
-160 0 -160 0 0 -80 0 -80 160 0 160 0 0 -80 0 -80 -160 0 -160 0 0 -80 0 -80
159 0 159 0 6 -35 c10 -51 60 -103 112 -117 l44 -12 0 -158 0 -158 80 0 80 0
0 160 0 160 80 0 80 0 0 -160 0 -160 80 0 80 0 0 160 0 160 80 0 80 0 0 -160
0 -160 80 0 80 0 0 160 0 160 80 0 80 0 0 -160 0 -160 80 0 80 0 0 160 0 160
80 0 80 0 0 -160 0 -160 80 0 80 0 0 158 0 158 44 12 c52 14 102 66 112 117
l6 35 159 0 159 0 0 80 0 80 -160 0 -160 0 0 80 0 80 160 0 160 0 0 80 0 80
-160 0 -160 0 0 80 0 80 160 0 160 0 0 80 0 80 -160 0 -160 0 0 80 0 80 160 0
160 0 0 80 0 80 -160 0 -160 0 0 80 0 80 160 0 160 0 0 80 0 80 -159 0 -159 0
-6 35 c-10 51 -60 103 -112 117 l-44 12 0 158 0 158 -80 0 -80 0 0 -160 0
-160 -80 0 -80 0 0 160 0 160 -80 0 -80 0 0 -160 0 -160 -80 0 -80 0 0 160 0
160 -80 0 -80 0 0 -160 0 -160 -80 0 -80 0 0 160 0 160 -80 0 -80 0 0 -160 0
-160 -80 0 -80 0 0 160 0 160 -80 0 -80 0 0 -159z m1440 -1041 l0 -720 -720 0
-720 0 0 720 0 720 720 0 720 0 0 -720z"/>
<path d="M1200 2240 l0 -560 560 0 560 0 0 560 0 560 -560 0 -560 0 0 -560z"/>
<path d="M3525 3431 c-92 -24 -173 -90 -215 -176 -19 -41 -24 -66 -24 -135 -1
-78 2 -90 33 -148 38 -70 70 -100 145 -140 43 -22 64 -26 136 -26 72 0 93 4
136 26 75 40 107 70 145 140 31 58 34 70 33 148 0 72 -4 93 -26 136 -39 75
-70 107 -137 143 -65 34 -164 49 -226 32z m138 -165 c103 -43 128 -177 48
-257 -112 -113 -296 -12 -267 146 18 94 128 150 219 111z"/>
<path d="M4325 3431 c-92 -24 -173 -90 -215 -176 -19 -41 -24 -66 -24 -135 -1
-78 2 -90 33 -148 38 -70 70 -100 145 -140 43 -22 64 -26 136 -26 72 0 93 4
136 26 75 40 107 70 145 140 31 58 34 70 33 148 0 72 -4 93 -26 136 -39 75
-70 107 -137 143 -65 34 -164 49 -226 32z m138 -165 c103 -43 128 -177 48
-257 -112 -113 -296 -12 -267 146 18 94 128 150 219 111z"/>
<path d="M3280 2320 l0 -320 720 0 720 0 0 320 0 320 -720 0 -720 0 0 -320z"/>
<path d="M3365 1671 c-92 -24 -173 -90 -215 -176 -19 -41 -24 -66 -24 -135 -1
-78 2 -90 33 -148 38 -70 70 -100 145 -140 43 -22 64 -26 136 -26 72 0 93 4
136 26 75 40 107 70 145 140 31 58 34 70 33 148 0 72 -4 93 -26 136 -39 75
-70 107 -137 143 -65 34 -164 49 -226 32z m138 -165 c103 -43 128 -177 48
-257 -65 -65 -157 -65 -222 0 -124 123 13 325 174 257z"/>
<path d="M4400 1507 c-49 -16 -133 -102 -148 -153 -28 -94 -8 -169 63 -239
101 -102 229 -102 330 0 98 97 101 222 8 325 -65 72 -158 97 -253 67z"/>
</g>
</svg>
