<?xml version="1.0" encoding="UTF-8"?>
<svg version="1.1" xmlns="http://www.w3.org/2000/svg" width="50" height="50">
<path d="M0 0 C5.94 0 11.88 0 18 0 C18 5.28 18 10.56 18 16 C12.06 16 6.12 16 0 16 C0 10.72 0 5.44 0 0 Z M2 2 C2 5.96 2 9.92 2 14 C6.62 14 11.24 14 16 14 C16 10.04 16 6.08 16 2 C11.38 2 6.76 2 2 2 Z " fill="#000000" transform="translate(16,17)"/>
<path d="M0 0 C3.3 0.99 6.6 1.98 10 3 C10 4.98 10 6.96 10 9 C8.02 9 6.04 9 4 9 C3.731875 8.401875 3.46375 7.80375 3.1875 7.1875 C2.01506533 5.02775192 0.80630718 3.64209744 -1 2 C-0.67 1.34 -0.34 0.68 0 0 Z " fill="#000000" transform="translate(36,30)"/>
<path d="M0 0 C0.66 0 1.32 0 2 0 C2.33 0.99 2.66 1.98 3 3 C2.360625 3.433125 1.72125 3.86625 1.0625 4.3125 C-1.26746003 5.91239177 -1.26746003 5.91239177 -2 9 C-3.98 9 -5.96 9 -8 9 C-8 7.02 -8 5.04 -8 3 C-6.865625 2.690625 -5.73125 2.38125 -4.5625 2.0625 C-1.21224901 1.37075469 -1.21224901 1.37075469 0 0 Z " fill="#000000" transform="translate(12,30)"/>
<path d="M0 0 C1.98 0 3.96 0 6 0 C6 1.98 6 3.96 6 6 C4.906875 6.309375 3.81375 6.61875 2.6875 6.9375 C0.44592006 7.58337897 -1.7869351 8.2623117 -4 9 C-4.33 8.01 -4.66 7.02 -5 6 C-4.360625 5.566875 -3.72125 5.13375 -3.0625 4.6875 C-0.73253997 3.08760823 -0.73253997 3.08760823 0 0 Z " fill="#000000" transform="translate(40,11)"/>
<path d="M0 0 C1.98 0 3.96 0 6 0 C6.268125 0.598125 6.53625 1.19625 6.8125 1.8125 C7.98493467 3.97224808 9.19369282 5.35790256 11 7 C10.67 7.66 10.34 8.32 10 9 C6.7 8.01 3.4 7.02 0 6 C0 4.02 0 2.04 0 0 Z " fill="#000000" transform="translate(4,11)"/>
<path d="M0 0 C0.66 0 1.32 0 2 0 C2 2.31 2 4.62 2 7 C2.66 7 3.32 7 4 7 C4 8.98 4 10.96 4 13 C2.02 13 0.04 13 -2 13 C-2 11.02 -2 9.04 -2 7 C-1.34 7 -0.68 7 0 7 C0 4.69 0 2.38 0 0 Z " fill="#000000" transform="translate(24,35)"/>
<path d="M0 0 C1.98 0 3.96 0 6 0 C6 1.98 6 3.96 6 6 C5.34 6 4.68 6 4 6 C4 8.31 4 10.62 4 13 C3.34 13 2.68 13 2 13 C2 10.69 2 8.38 2 6 C1.34 6 0.68 6 0 6 C0 4.02 0 2.04 0 0 Z " fill="#000000" transform="translate(22,2)"/>
<path d="M0 0 C1.98 0 3.96 0 6 0 C6 0.66 6 1.32 6 2 C4.02 2 2.04 2 0 2 C0 1.34 0 0.68 0 0 Z " fill="#000000" transform="translate(22,21)"/>
</svg>
