<?xml version="1.0" encoding="UTF-8"?>
<svg version="1.1" xmlns="http://www.w3.org/2000/svg" width="50" height="50">
<path d="M0 0 C0.33 0.66 0.66 1.32 1 2 C1.99 2 2.98 2 4 2 C4 2.66 4 3.32 4 4 C5.0725 3.9175 6.145 3.835 7.25 3.75 C11 4 11 4 13.20996094 5.63574219 C15.49794964 8.65768472 15.46434772 10.31826631 15.390625 14.078125 C15.37773438 15.23828125 15.36484375 16.3984375 15.3515625 17.59375 C15.31804688 18.8003125 15.28453125 20.006875 15.25 21.25 C15.23195312 22.47203125 15.21390625 23.6940625 15.1953125 24.953125 C15.148181 27.96954078 15.08239413 30.98437491 15 34 C14.11248047 34.05607422 14.11248047 34.05607422 13.20703125 34.11328125 C8.11029894 34.46168253 8.11029894 34.46168253 3.58203125 36.61328125 C-0.6131527 38.86636794 -4.71703021 37.79367936 -9.3125 37.1875 C-12.509375 36.795625 -15.70625 36.40375 -19 36 C-19 24.78 -19 13.56 -19 2 C-12.73 1.34 -6.46 0.68 0 0 Z M-17 4 C-17 11.92 -17 19.84 -17 28 C-16.34 28 -15.68 28 -15 28 C-14.67 28.66 -14.34 29.32 -14 30 C-14 28.02 -14 26.04 -14 24 C-11.03 24 -8.06 24 -5 24 C-5 25.98 -5 27.96 -5 30 C-7.31 30 -9.62 30 -12 30 C-12 30.66 -12 31.32 -12 32 C-13.65 32 -15.3 32 -17 32 C-17 32.66 -17 33.32 -17 34 C-10.97403427 35.0712828 -5.11090483 35.09945415 1 35 C1 34.34 1 33.68 1 33 C0.34 33 -0.32 33 -1 33 C-1 23.1 -1 13.2 -1 3 C-9.02067246 2.83462035 -9.02067246 2.83462035 -17 4 Z M1 10 C1 10.66 1 11.32 1 12 C3.97 12 6.94 12 10 12 C10 12.66 10 13.32 10 14 C7.03 14 4.06 14 1 14 C1.33 15.32 1.66 16.64 2 18 C2.33 17.01 2.66 16.02 3 15 C6.3 15 9.6 15 13 15 C13 13.68 13 12.36 13 11 C9.04 10.67 5.08 10.34 1 10 Z M1 20 C1 22.31 1 24.62 1 27 C1.99 27.495 1.99 27.495 3 28 C3 26.68 3 25.36 3 24 C6.3 24 9.6 24 13 24 C13 23.67 13 23.34 13 23 C10.03 23 7.06 23 4 23 C4 22.34 4 21.68 4 21 C3.01 20.67 2.02 20.34 1 20 Z M10 28 C10 28.66 10 29.32 10 30 C8.02 30 6.04 30 4 30 C4 30.66 4 31.32 4 32 C6.97 32 9.94 32 13 32 C13 30.68 13 29.36 13 28 C12.01 28 11.02 28 10 28 Z " fill="#000000" transform="translate(27,6)"/>
<path d="M0 0 C2.00293347 3.00440021 2.49271626 4.70993945 3.125 8.1875 C3.29257812 9.08855469 3.46015625 9.98960938 3.6328125 10.91796875 C3.75398438 11.60503906 3.87515625 12.29210938 4 13 C3.01 13 2.02 13 1 13 C0.67 13.66 0.34 14.32 0 15 C-0.66 15 -1.32 15 -2 15 C-2.66 14.34 -3.32 13.68 -4 13 C-4.66 13.66 -5.32 14.32 -6 15 C-7.32 14.34 -8.64 13.68 -10 13 C-9.91266424 11.39482903 -9.80447776 9.79078338 -9.6875 8.1875 C-9.62949219 7.29417969 -9.57148438 6.40085937 -9.51171875 5.48046875 C-8.38470607 0.01746837 -5.17650024 -0.66082982 0 0 Z M-4 2 C-5.10836423 3.88316159 -5.10836423 3.88316159 -6 6 C-5.67 6.66 -5.34 7.32 -5 8 C-3.68 7.67 -2.36 7.34 -1 7 C-1 5.68 -1 4.36 -1 3 C-1.99 2.67 -2.98 2.34 -4 2 Z " fill="#000000" transform="translate(21,11)"/>
<path d="M0 0 C1.32 0 2.64 0 4 0 C4 1.65 4 3.3 4 5 C3.34 5 2.68 5 2 5 C2 4.01 2 3.02 2 2 C1.34 2 0.68 2 0 2 C0 1.34 0 0.68 0 0 Z " fill="#000000" transform="translate(21,27)"/>
</svg>
