<?xml version="1.0" standalone="no"?>
<!DOCTYPE svg PUBLIC "-//W3C//DTD SVG 20010904//EN"
 "http://www.w3.org/TR/2001/REC-SVG-20010904/DTD/svg10.dtd">
<svg version="1.0" xmlns="http://www.w3.org/2000/svg"
 width="512.000000pt" height="512.000000pt" viewBox="0 0 512.000000 512.000000"
 preserveAspectRatio="xMidYMid meet">

<g transform="translate(0.000000,512.000000) scale(0.100000,-0.100000)"
fill="#000000" stroke="none">
<path d="M2097 4944 c-399 -72 -716 -385 -793 -782 -19 -99 -18 -306 2 -422
39 -225 115 -383 308 -639 106 -140 155 -215 187 -287 33 -73 59 -171 59 -226
l0 -38 205 0 205 0 0 1205 0 1205 -47 -1 c-27 0 -83 -7 -126 -15z"/>
<path d="M2682 4943 c-47 -23 -80 -67 -87 -116 -3 -23 -5 -521 -3 -1107 3
-1008 4 -1067 21 -1093 57 -87 185 -101 258 -28 55 54 67 104 46 194 -51 217
-41 380 24 407 27 11 34 10 57 -7 26 -20 27 -23 28 -134 0 -123 3 -140 37
-268 18 -69 30 -93 65 -133 132 -146 376 -63 390 133 8 108 -40 185 -131 210
-35 9 -51 8 -93 -6 -62 -21 -81 -18 -107 16 -67 91 119 170 269 115 l52 -19
44 25 c61 36 93 95 92 173 0 90 -22 127 -97 161 -54 26 -74 29 -157 29 -85 0
-101 -3 -150 -28 -30 -16 -78 -46 -106 -68 -58 -44 -94 -49 -124 -17 -44 47
-16 95 98 170 105 68 188 92 305 86 71 -3 107 -11 157 -32 36 -15 77 -33 91
-39 37 -15 80 18 115 88 22 46 26 65 22 114 -5 67 -44 142 -90 169 -25 15 -30
14 -95 -15 -94 -43 -136 -53 -228 -53 -101 0 -193 31 -288 96 -106 73 -131
120 -87 164 30 30 67 25 124 -19 28 -22 76 -52 106 -68 49 -25 65 -28 150 -28
83 0 103 4 156 28 52 24 65 35 80 70 44 97 12 214 -72 263 l-46 27 -52 -19
c-150 -55 -336 24 -269 115 26 34 45 37 107 16 42 -14 58 -15 92 -6 84 23 133
91 134 187 1 224 -282 315 -415 134 -40 -54 -78 -233 -79 -374 -1 -117 -1
-119 -28 -139 -23 -17 -30 -18 -57 -7 -65 27 -75 190 -25 406 15 61 15 79 5
117 -29 102 -146 156 -239 110z"/>
<path d="M4378 4945 c-3 -6 -34 -99 -68 -207 l-63 -198 -219 -2 -219 -3 167
-120 c91 -66 171 -123 176 -126 6 -4 -17 -90 -56 -210 -36 -112 -64 -205 -62
-206 2 -2 81 53 175 122 l172 125 172 -124 c95 -69 173 -121 175 -117 2 5 -26
97 -62 205 l-64 197 176 127 176 127 -219 5 -219 5 -66 205 c-36 112 -69 200
-72 195z"/>
<path d="M669 3318 l-65 -203 -217 -5 -217 -5 82 -59 c46 -33 124 -90 175
-127 l92 -68 -69 -206 c-38 -113 -66 -205 -63 -205 3 0 79 54 169 120 91 67
170 123 177 125 7 3 88 -51 182 -120 93 -68 171 -123 172 -121 2 2 -26 94 -62
206 -37 111 -65 203 -63 206 2 2 82 60 178 129 l173 125 -220 0 -219 0 -63
198 c-35 108 -66 200 -70 205 -4 4 -37 -84 -72 -195z"/>
<path d="M1960 2060 l0 -200 600 0 600 0 0 200 0 200 -600 0 -600 0 0 -200z"/>
<path d="M560 1970 l0 -190 178 0 179 0 22 -80 c29 -106 90 -255 144 -350 l44
-78 -123 -123 c-68 -68 -124 -128 -124 -134 0 -6 119 -129 265 -275 l265 -265
128 128 128 127 114 -59 c116 -59 236 -107 343 -137 l57 -15 0 -180 0 -179
380 0 380 0 0 179 0 180 58 15 c106 30 226 78 342 137 l114 59 128 -127 128
-128 265 265 c146 146 265 269 265 275 0 6 -56 66 -124 134 l-124 124 35 59
c63 108 145 310 168 416 l7 32 179 0 179 0 0 190 0 190 -525 0 -525 0 0 -59
c0 -77 -41 -237 -84 -328 -121 -253 -337 -435 -612 -515 -69 -20 -100 -23
-249 -22 -155 0 -178 3 -258 27 -222 68 -404 203 -528 391 -88 133 -134 268
-154 444 l-7 62 -529 0 -529 0 0 -190z"/>
<path d="M2266 1689 c27 -54 94 -118 153 -146 48 -24 68 -28 141 -28 73 0 93
4 141 28 59 28 126 92 153 146 l17 31 -311 0 -311 0 17 -31z"/>
</g>
</svg>
