<?xml version="1.0" standalone="no"?>
<!DOCTYPE svg PUBLIC "-//W3C//DTD SVG 20010904//EN"
 "http://www.w3.org/TR/2001/REC-SVG-20010904/DTD/svg10.dtd">
<svg version="1.0" xmlns="http://www.w3.org/2000/svg"
 width="512.000000pt" height="512.000000pt" viewBox="0 0 512.000000 512.000000"
 preserveAspectRatio="xMidYMid meet">

<g transform="translate(0.000000,512.000000) scale(0.100000,-0.100000)"
fill="#000000" stroke="none">
<path d="M1740 4945 c-227 -36 -442 -147 -610 -315 -289 -289 -398 -706 -286
-1088 l23 -77 -312 -315 c-348 -351 -363 -371 -387 -523 -49 -314 238 -594
552 -538 141 25 164 43 506 383 l311 310 109 -29 c100 -26 123 -28 279 -27
150 0 181 4 266 26 251 68 461 206 612 403 217 284 289 656 191 991 -158 546
-694 887 -1254 799z m370 -328 c209 -57 368 -171 480 -344 89 -136 125 -259
125 -433 0 -174 -36 -297 -125 -433 -238 -366 -718 -474 -1087 -247 -226 139
-363 368 -380 636 -26 400 254 753 662 833 67 13 257 6 325 -12z m-985 -1562
c16 -17 51 -49 77 -71 l47 -41 -262 -260 c-283 -282 -300 -294 -383 -278 -50
9 -110 68 -119 118 -17 87 -14 91 273 379 l266 267 35 -42 c20 -23 49 -56 66
-72z"/>
<path d="M2175 4181 c-26 -12 -91 -71 -183 -167 l-142 -149 -82 81 c-96 95
-111 104 -171 104 -75 0 -144 -61 -154 -138 -9 -67 21 -112 184 -274 159 -157
177 -168 261 -154 32 6 66 37 264 238 240 244 255 265 245 341 -7 53 -33 87
-87 115 -53 27 -82 27 -135 3z"/>
<path d="M3826 3829 c-63 -15 -153 -68 -197 -116 -22 -24 -55 -74 -72 -111
l-32 -67 -3 -1527 -2 -1528 -200 0 -199 0 -3 888 -3 887 -32 67 c-44 93 -100
151 -191 196 l-76 37 -256 0 -256 0 -76 -37 c-91 -45 -147 -103 -191 -196
l-32 -67 -3 -888 -3 -887 -199 0 -199 0 -3 408 -3 408 -37 76 c-45 91 -103
147 -196 191 l-67 32 -256 0 -255 0 -76 -37 c-91 -45 -147 -103 -191 -196
l-32 -67 -3 -407 -3 -406 -109 -4 c-91 -2 -113 -6 -136 -24 -52 -39 -69 -71
-69 -133 0 -48 5 -64 29 -95 54 -72 -145 -66 2380 -64 l2285 3 27 21 c44 32
66 68 71 116 7 58 -15 108 -63 144 -35 27 -44 29 -146 32 l-108 4 -2 1526 -3
1527 -32 67 c-44 93 -100 151 -191 196 l-76 37 -235 2 c-130 1 -253 -3 -275
-8z m469 -334 l25 -24 0 -1496 0 -1495 -240 0 -240 0 0 1495 0 1496 25 24 c24
25 26 25 215 25 189 0 191 0 215 -25z m-1520 -1280 l25 -24 0 -856 0 -855
-240 0 -240 0 0 855 0 856 25 24 c24 25 26 25 215 25 189 0 191 0 215 -25z
m-1520 -960 l25 -24 0 -376 0 -375 -240 0 -240 0 0 375 0 376 25 24 c24 25 26
25 215 25 189 0 191 0 215 -25z"/>
</g>
</svg>
