<?xml version="1.0" encoding="UTF-8"?>
<svg version="1.1" xmlns="http://www.w3.org/2000/svg" width="50" height="50">
<path d="M0 0 C0.66 0.33 1.32 0.66 2 1 C1.05773575 3.42357157 0.10513341 5.79241907 -1.0703125 8.11328125 C-5.05654593 16.42531614 -5.58034893 26.18815606 -3.1640625 35.07421875 C-2.21590678 37.45886602 -1.15867481 39.71225156 0 42 C0.67957551 43.66144496 1.34953045 45.32694543 2 47 C0.16796875 46.76953125 0.16796875 46.76953125 -2 46 C-3.44921875 44.07421875 -3.44921875 44.07421875 -4.6875 41.6875 C-5.10386719 40.90761719 -5.52023438 40.12773438 -5.94921875 39.32421875 C-9.54698678 31.36633036 -9.21102367 20.18920507 -7.24609375 11.76953125 C-5.5116233 7.27351177 -3.31209567 3.54867393 0 0 Z " fill="#000000" transform="translate(24,1)"/>
<path d="M0 0 C0.99 0 1.98 0 3 0 C2.37616162 2.95502392 1.37235801 5.23156982 -0.0625 7.875 C-3.17464643 14.82012089 -3.54731897 22.86667734 -0.87109375 30.015625 C-0.00117987 31.71084179 0.91989794 33.38149799 1.90625 35.01171875 C3 37 3 37 3 40 C1.13671875 39.7421875 1.13671875 39.7421875 -1 39 C-2.23046875 37.2578125 -2.23046875 37.2578125 -3.1875 35.125 C-3.51105469 34.42632812 -3.83460937 33.72765625 -4.16796875 33.0078125 C-7.11643561 25.89273284 -7.25776863 16.5005465 -5.17578125 9.05078125 C-3.72147439 5.7799424 -1.98636956 2.97955434 0 0 Z " fill="#000000" transform="translate(29,5)"/>
<path d="M0 0 C0.66 0 1.32 0 2 0 C2 4.62 2 9.24 2 14 C3.32 14.66 4.64 15.32 6 16 C6 18.64 6 21.28 6 24 C4.02 24.99 4.02 24.99 2 26 C2 30.62 2 35.24 2 40 C1.34 40 0.68 40 0 40 C0 26.8 0 13.6 0 0 Z " fill="#000000" transform="translate(0,5)"/>
<path d="M0 0 C0.99 0 1.98 0 3 0 C2.50284892 2.58518563 1.85141992 4.23772814 0.4375 6.5 C-1.83446636 12.03174419 -2.38824671 18.57445618 -0.09765625 24.2265625 C0.87569907 25.85459453 1.93248938 27.43209377 3 29 C3 29.99 3 30.98 3 32 C1.140625 31.69921875 1.140625 31.69921875 -1 31 C-5.82122264 24.1699346 -5.97689447 17.16607901 -5 9 C-3.8952805 5.64621029 -2.54768219 2.54768219 0 0 Z " fill="#000000" transform="translate(35,9)"/>
<path d="M0 0 C0.99 0 1.98 0 3 0 C2.38722388 2.96175123 1.74627478 4.38058783 0 7 C-0.35420761 9.37607867 -0.35420761 9.37607867 -0.3125 11.9375 C-0.32925781 12.79214844 -0.34601562 13.64679687 -0.36328125 14.52734375 C0.06769999 17.4607967 1.18744116 18.70919345 3 21 C3 21.99 3 22.98 3 24 C1.1875 23.8125 1.1875 23.8125 -1 23 C-4.95097133 17.64892717 -4.79615001 12.41246907 -4 6 C-2.97419956 3.27961746 -2.07206297 2.13126477 0 0 Z " fill="#000000" transform="translate(41,13)"/>
<path d="M0 0 C-0.875 3.875 -0.875 3.875 -2 5 C-2.25005386 7.95817107 -2.25005386 7.95817107 -2 11 C-1.34 11.66 -0.68 12.32 0 13 C0 13.99 0 14.98 0 16 C-1.875 15.6875 -1.875 15.6875 -4 15 C-6.46247719 11.30628421 -6.56931388 8.28710603 -6 4 C-3.9 0 -3.9 0 0 0 Z " fill="#000000" transform="translate(50,17)"/>
</svg>
