<?xml version="1.0" encoding="UTF-8"?>
<svg version="1.1" xmlns="http://www.w3.org/2000/svg" width="50" height="50">
<path d="M0 0 C0.83426514 -0.00630432 1.66853027 -0.01260864 2.52807617 -0.019104 C3.43017822 -0.01505554 4.33228027 -0.01100708 5.26171875 -0.00683594 C6.64870972 -0.00970612 6.64870972 -0.00970612 8.0637207 -0.01263428 C10.02067334 -0.0139966 11.97763499 -0.0102969 13.93457031 -0.00195312 C16.93705465 0.00874572 19.93894062 -0.00184685 22.94140625 -0.01464844 C24.83984508 -0.01332685 26.73828353 -0.01076448 28.63671875 -0.00683594 C29.5388208 -0.0108844 30.44092285 -0.01493286 31.37036133 -0.019104 C32.62175903 -0.00964752 32.62175903 -0.00964752 33.8984375 0 C34.63408936 0.00159119 35.36974121 0.00318237 36.12768555 0.00482178 C37.94921875 0.25878906 37.94921875 0.25878906 39.94921875 2.25878906 C40.20800781 5.20800781 40.20800781 5.20800781 40.21484375 8.94628906 C40.21771393 9.93375122 40.21771393 9.93375122 40.22064209 10.94116211 C40.22200325 12.33317446 40.21831158 13.72519953 40.20996094 15.1171875 C40.19925975 17.25061495 40.20985781 19.38320037 40.22265625 21.51660156 C40.22133464 22.86816593 40.21877222 24.21972976 40.21484375 25.57128906 C40.21258789 26.80492188 40.21033203 28.03855469 40.20800781 29.30957031 C39.94921875 32.25878906 39.94921875 32.25878906 37.94921875 34.25878906 C35.5065918 34.48242188 35.5065918 34.48242188 32.4609375 34.46191406 C30.81254883 34.47931641 30.81254883 34.47931641 29.13085938 34.49707031 C26.81315091 34.50484351 24.49533617 34.49718834 22.17773438 34.47363281 C16.30695376 34.3509026 16.30695376 34.3509026 11.11181641 36.60839844 C9.59241816 38.39902822 9.59241816 38.39902822 7.94921875 41.25878906 C5.2404254 42.61318574 2.93988607 42.32380357 -0.05078125 42.25878906 C0.5768174 39.32999535 1.53544534 36.89783277 2.94921875 34.25878906 C1.83546875 34.30003906 0.72171875 34.34128906 -0.42578125 34.38378906 C-4.05078125 34.25878906 -4.05078125 34.25878906 -6.05078125 32.25878906 C-6.30957031 29.30957031 -6.30957031 29.30957031 -6.31640625 25.57128906 C-6.3183197 24.91298096 -6.32023315 24.25467285 -6.32220459 23.57641602 C-6.32356575 22.18440366 -6.31987408 20.79237859 -6.31152344 19.40039062 C-6.30082225 17.26696317 -6.31142031 15.13437776 -6.32421875 13.00097656 C-6.32289714 11.6494122 -6.32033472 10.29784836 -6.31640625 8.94628906 C-6.31415039 7.71265625 -6.31189453 6.47902344 -6.30957031 5.20800781 C-5.90700553 0.62028844 -4.21974802 0.00912715 0 0 Z M-3.02978516 3.44384766 C-4.43715769 5.94561892 -4.4392303 7.8310295 -4.44921875 10.69628906 C-4.45308594 11.75589844 -4.45695313 12.81550781 -4.4609375 13.90722656 C-4.44933594 15.01324219 -4.43773437 16.11925781 -4.42578125 17.25878906 C-4.43738281 18.36480469 -4.44898438 19.47082031 -4.4609375 20.61035156 C-4.45707031 21.66996094 -4.45320312 22.72957031 -4.44921875 23.82128906 C-4.44583496 24.79195312 -4.44245117 25.76261719 -4.43896484 26.76269531 C-4.24354175 29.28774069 -4.24354175 29.28774069 -2.72509766 31.05566406 C-0.31490127 32.78757537 2.04453951 32.93604692 4.94921875 33.25878906 C4.94921875 34.90878906 4.94921875 36.55878906 4.94921875 38.25878906 C6.96544205 37.5431564 6.96544205 37.5431564 8.94921875 36.25878906 C9.60401427 34.22372481 9.60401427 34.22372481 9.94921875 32.25878906 C10.69083252 32.27449951 11.43244629 32.29020996 12.1965332 32.30639648 C15.55151771 32.3686962 18.90638061 32.40776413 22.26171875 32.44628906 C24.01258789 32.48399414 24.01258789 32.48399414 25.79882812 32.52246094 C26.91708984 32.53212891 28.03535156 32.54179688 29.1875 32.55175781 C30.21915283 32.56746826 31.25080566 32.58317871 32.3137207 32.59936523 C34.93704065 32.45151732 34.93704065 32.45151732 36.78442383 31.08032227 C38.38315718 28.58018613 38.33734722 26.77850854 38.34765625 23.82128906 C38.35152344 22.76167969 38.35539062 21.70207031 38.359375 20.61035156 C38.34777344 19.50433594 38.33617187 18.39832031 38.32421875 17.25878906 C38.33582031 16.15277344 38.34742188 15.04675781 38.359375 13.90722656 C38.35357422 12.3178125 38.35357422 12.3178125 38.34765625 10.69628906 C38.34427246 9.725625 38.34088867 8.75496094 38.33740234 7.75488281 C38.10230697 5.28278215 38.10230697 5.28278215 36.92822266 3.44384766 C33.77003264 1.55267392 30.46241505 1.83187633 26.88671875 1.86035156 C26.099021 1.85748138 25.31132324 1.85461121 24.49975586 1.85165405 C22.8354419 1.84961385 21.17110394 1.85514074 19.50683594 1.86767578 C16.95843928 1.88373097 14.41162854 1.86782662 11.86328125 1.84863281 C10.24609025 1.85061525 8.62890023 1.85445895 7.01171875 1.86035156 C6.24915771 1.85427887 5.48659668 1.84820618 4.70092773 1.84194946 C1.77931837 1.8808165 -0.48627224 1.92075221 -3.02978516 3.44384766 Z " fill="#000000" transform="translate(8.05078125,7.7412109375)"/>
<path d="M0 0 C1.98 0 3.96 0 6 0 C6 1.98 6 3.96 6 6 C4.02 6 2.04 6 0 6 C0 4.02 0 2.04 0 0 Z " fill="#000000" transform="translate(32,22)"/>
<path d="M0 0 C1.98 0 3.96 0 6 0 C6 1.98 6 3.96 6 6 C4.02 6 2.04 6 0 6 C0 4.02 0 2.04 0 0 Z " fill="#000000" transform="translate(22,22)"/>
<path d="M0 0 C1.98 0 3.96 0 6 0 C6 1.98 6 3.96 6 6 C4.02 6 2.04 6 0 6 C0 4.02 0 2.04 0 0 Z " fill="#000000" transform="translate(12,22)"/>
</svg>
