<?xml version="1.0" standalone="no"?>
<!DOCTYPE svg PUBLIC "-//W3C//DTD SVG 20010904//EN"
 "http://www.w3.org/TR/2001/REC-SVG-20010904/DTD/svg10.dtd">
<svg version="1.0" xmlns="http://www.w3.org/2000/svg"
 width="50.000000pt" height="50.000000pt" viewBox="0 0 50.000000 50.000000"
 preserveAspectRatio="xMidYMid meet">

<g transform="translate(0.000000,50.000000) scale(0.100000,-0.100000)"
fill="#000000" stroke="none">
<path d="M44 447 c-2 -7 -3 -100 -2 -207 l3 -195 193 -3 c105 -1 192 1 192 6
0 16 -65 70 -89 74 -32 4 -50 32 -35 56 23 36 74 21 74 -22 0 -20 56 -86 73
-86 9 0 9 352 1 374 -5 13 -22 16 -83 16 l-77 0 -46 -47 c-26 -27 -48 -59 -50
-72 -4 -32 -32 -50 -55 -35 -37 23 -22 74 21 74 20 0 86 56 86 73 0 4 -45 7
-100 7 -73 0 -102 -4 -106 -13z m152 -26 c-9 -10 -30 -21 -46 -24 -55 -12 -65
-86 -15 -109 34 -16 72 3 81 39 4 15 25 47 47 71 41 41 42 42 109 42 l68 0 0
-167 c0 -162 0 -166 -19 -149 -10 9 -21 30 -24 46 -12 55 -86 65 -109 15 -16
-36 3 -74 41 -81 17 -4 38 -15 47 -25 17 -19 13 -19 -149 -19 l-167 0 0 190 0
190 77 0 c74 0 76 -1 59 -19z"/>
<path d="M300 380 c-11 -11 -20 -28 -20 -38 0 -24 -99 -118 -133 -126 -36 -9
-55 -47 -39 -81 23 -49 96 -41 108 13 8 34 102 132 126 132 24 0 58 35 58 60
0 11 -9 29 -20 40 -11 11 -29 20 -40 20 -11 0 -29 -9 -40 -20z m74 -22 c15
-24 -3 -52 -35 -56 -32 -5 -139 -110 -139 -138 0 -43 -51 -58 -74 -22 -15 24
3 52 35 56 32 5 139 110 139 137 0 44 51 59 74 23z"/>
<path d="M324 349 c-10 -17 13 -36 27 -22 12 12 4 33 -11 33 -5 0 -12 -5 -16
-11z"/>
<path d="M144 169 c-10 -17 13 -36 27 -22 12 12 4 33 -11 33 -5 0 -12 -5 -16
-11z"/>
<path d="M144 349 c-10 -17 13 -36 27 -22 12 12 4 33 -11 33 -5 0 -12 -5 -16
-11z"/>
<path d="M324 169 c-10 -17 13 -36 27 -22 12 12 4 33 -11 33 -5 0 -12 -5 -16
-11z"/>
</g>
</svg>
