<?xml version="1.0" encoding="UTF-8"?>
<svg version="1.1" xmlns="http://www.w3.org/2000/svg" width="32" height="32">
<path d="M0 0 C1.32 0.66 2.64 1.32 4 2 C3.835 2.61875 3.67 3.2375 3.5 3.875 C3.04052016 6.74674902 3.06252321 9.11260514 3.1875 12 C3.2371128 15.69891015 3.12634876 16.79363036 1.125 20.0625 C-2.61785149 23.47509989 -5.60769925 23.32843064 -10.515625 23.29296875 C-13.97198834 22.88537873 -15.68663869 21.53723498 -18 19 C-19.84862688 15.30274625 -19.47587094 11.03538558 -19 7 C-17.20353146 4.06576805 -16.0558929 2.52794645 -13 1 C-10.97967529 0.95466312 -8.95796597 0.96146906 -6.9375 1 C-4.95869142 1.03764677 -2.97861741 1.04662427 -1 1 C-0.67 0.67 -0.34 0.34 0 0 Z M-14.5 5.5 C-16.62153384 9.03588973 -16.791013 11.97901723 -16 16 C-14.66666667 18.66666667 -14.66666667 18.66666667 -12 20 C-7.97901723 20.791013 -5.03588973 20.62153384 -1.5 18.5 C0.62153384 14.96411027 0.791013 12.02098277 0 8 C-1.33333333 5.33333333 -1.33333333 5.33333333 -4 4 C-8.02098277 3.208987 -10.96411027 3.37846616 -14.5 5.5 Z " fill="#000000" transform="translate(24,5)"/>
<path d="M0 0 C2.49361571 1.20381448 4.68143083 2.45428722 7 4 C7 5.32 7 6.64 7 8 C5.68 8 4.36 8 3 8 C0.6875 5.6875 0.6875 5.6875 -1 3 C-0.67 2.01 -0.34 1.02 0 0 Z " fill="#000000" transform="translate(11,11)"/>
<path d="M0 0 C1.98 0 3.96 0 6 0 C6 0.66 6 1.32 6 2 C4.02 2 2.04 2 0 2 C0 1.34 0 0.68 0 0 Z " fill="#000000" transform="translate(13,3)"/>
</svg>
