<?xml version="1.0" standalone="no"?>
<!DOCTYPE svg PUBLIC "-//W3C//DTD SVG 20010904//EN"
 "http://www.w3.org/TR/2001/REC-SVG-20010904/DTD/svg10.dtd">
<svg version="1.0" xmlns="http://www.w3.org/2000/svg"
 width="512.000000pt" height="512.000000pt" viewBox="0 0 512.000000 512.000000"
 preserveAspectRatio="xMidYMid meet">

<g transform="translate(0.000000,512.000000) scale(0.100000,-0.100000)"
fill="#000000" stroke="none">
<path d="M1477 4679 c-78 -18 -133 -63 -163 -134 -15 -36 -18 -87 -11 -175 1
-17 -139 -270 -447 -802 -438 -760 -449 -778 -478 -778 -81 0 -162 -50 -200
-123 -44 -84 -24 -211 44 -274 34 -32 107 -63 149 -63 l37 0 451 -782 451
-782 -9 -51 c-28 -150 76 -278 225 -277 87 1 151 37 200 114 l24 38 610 0 609
0 15 -28 c19 -35 72 -85 115 -107 39 -19 131 -23 174 -6 124 48 180 194 123
318 -74 158 -305 172 -396 23 l-25 -39 -617 -1 -617 0 -15 28 c-18 35 -62 75
-106 98 -32 16 -115 22 -173 12 -15 -2 -104 144 -458 756 -390 675 -437 762
-424 776 59 65 59 215 0 280 -13 14 34 101 424 776 354 612 443 758 458 756
58 -10 141 -4 173 12 44 23 88 63 106 99 l15 27 617 0 617 -1 25 -39 c91 -149
315 -136 394 21 84 169 -58 364 -239 330 -71 -13 -142 -66 -174 -128 l-12 -23
-609 0 -610 0 -24 38 c-56 88 -154 132 -249 111z"/>
<path d="M2420 3981 c-91 -28 -186 -116 -214 -198 -25 -72 -21 -167 9 -231 14
-30 34 -65 45 -79 27 -34 27 -94 0 -118 -12 -11 -36 -19 -57 -19 -29 0 -42 7
-68 37 -43 49 -84 137 -99 209 -6 32 -15 56 -18 52 -4 -3 -58 -7 -120 -8 -129
-1 -168 -16 -238 -86 -58 -58 -82 -113 -88 -196 -4 -62 -1 -80 21 -127 14 -31
45 -76 68 -102 33 -36 43 -54 43 -81 0 -65 -70 -98 -127 -61 -40 26 -94 98
-128 170 -17 37 -35 67 -40 67 -19 0 -101 -93 -122 -138 -33 -71 -31 -198 4
-272 34 -72 97 -136 167 -168 l57 -27 313 -3 314 -3 -30 43 c-39 57 -46 84
-32 117 19 47 77 64 118 35 l22 -15 0 114 c0 71 6 132 15 163 19 65 76 131
139 160 48 22 62 24 249 24 l198 0 -3 258 -3 257 -28 57 c-53 108 -167 179
-285 177 -31 0 -68 -4 -82 -8z"/>
<path d="M4665 3949 c-39 -11 -111 -72 -131 -110 l-15 -29 -248 0 c-231 0
-250 -1 -273 -20 -14 -10 -73 -87 -132 -170 l-106 -150 -390 0 -390 0 0 -80 0
-80 428 0 429 0 20 23 c11 12 67 88 124 170 l103 147 218 0 217 0 15 -28 c8
-16 33 -45 55 -65 66 -59 159 -73 241 -36 92 42 134 107 134 209 0 102 -42
167 -134 209 -47 21 -113 26 -165 10z"/>
<path d="M2418 3051 l-33 -29 0 -462 0 -462 33 -29 32 -29 450 0 c314 0 457 3
474 11 54 25 56 39 56 509 0 470 -2 484 -56 509 -17 8 -160 11 -474 11 l-450
0 -32 -29z m702 -486 l0 -215 -215 0 -215 0 0 215 0 215 215 0 215 0 0 -215z"/>
<path d="M4659 2785 c-48 -15 -123 -80 -134 -116 -6 -18 -21 -19 -471 -19
l-464 0 0 -80 0 -80 459 0 459 0 22 -34 c29 -47 81 -91 125 -106 20 -7 66 -10
101 -8 82 5 136 41 176 117 78 149 -11 317 -178 335 -30 4 -67 0 -95 -9z"/>
<path d="M1519 2426 c-99 -26 -190 -103 -232 -194 -16 -36 -21 -67 -22 -132 0
-73 4 -93 28 -141 15 -31 48 -76 73 -99 l46 -42 38 78 c41 83 116 170 157 180
37 10 72 -4 88 -36 22 -43 19 -53 -31 -112 -75 -87 -89 -120 -89 -218 0 -101
23 -158 93 -222 72 -66 119 -82 249 -83 l112 0 6 48 c8 58 62 169 104 215 38
41 86 44 121 7 32 -34 28 -71 -14 -134 -46 -68 -59 -119 -54 -207 13 -205 216
-336 418 -269 67 22 150 99 181 167 23 51 24 62 27 351 l3 297 -198 0 c-187 0
-201 2 -249 24 -63 29 -120 95 -139 160 -8 27 -15 83 -15 124 0 72 -1 74 -18
59 -42 -38 -117 -10 -128 48 -4 24 2 42 30 84 20 29 36 55 36 57 0 11 -578 2
-621 -10z"/>
<path d="M2980 1730 l0 -80 390 0 390 0 106 -150 c59 -83 118 -160 132 -170
23 -19 42 -20 273 -20 l248 0 15 -29 c21 -40 93 -99 135 -111 79 -22 172 0
229 53 68 63 88 190 44 274 -69 131 -244 164 -353 66 -22 -20 -47 -49 -55 -65
l-15 -28 -217 0 -218 0 -103 148 c-57 81 -113 157 -124 170 l-20 22 -429 0
-428 0 0 -80z"/>
</g>
</svg>
